<?xml version="1.0" encoding="utf-8"?>
<!-- Generator: Adobe Illustrator 28.0.0, SVG Export Plug-In . SVG Version: 6.00 Build 0)  -->
<svg version="1.1" id="Capa_1" xmlns="http://www.w3.org/2000/svg" xmlns:xlink="http://www.w3.org/1999/xlink" x="0px" y="0px"
	 viewBox="0 0 800 255" style="enable-background:new 0 0 800 255;" xml:space="preserve">
<style type="text/css">
	.st0{fill:#133524;}
</style>
<path class="st0" d="M152.58,189.5c3.61,0,6.86,0.91,9.73,2.71c2.87,1.81,5.14,4.31,6.82,7.5c1.67,3.19,2.51,6.86,2.51,11.01
	c0,4.09-0.84,7.75-2.51,10.96c-1.68,3.22-3.94,5.74-6.78,7.58c-2.85,1.83-6.05,2.75-9.61,2.75c-1.97,0-3.82-0.31-5.54-0.92
	c-1.73-0.61-3.3-1.41-4.7-2.39c-1.41-0.98-2.59-2.09-3.55-3.31c-0.96-1.22-1.65-2.47-2.07-3.75l1.75-1.04v23.45
	c0,0.9-0.29,1.68-0.88,2.31c-0.59,0.64-1.36,0.96-2.31,0.96c-0.9,0-1.66-0.31-2.27-0.92c-0.61-0.61-0.92-1.4-0.92-2.35v-50.88
	c0-0.96,0.31-1.74,0.92-2.35c0.61-0.61,1.37-0.92,2.27-0.92c0.96,0,1.73,0.31,2.31,0.92c0.58,0.61,0.88,1.4,0.88,2.35v7.02
	l-1.2-0.64c0.37-1.33,1.02-2.6,1.95-3.83c0.93-1.22,2.07-2.3,3.43-3.23c1.36-0.93,2.87-1.66,4.55-2.19
	C149.03,189.76,150.77,189.5,152.58,189.5 M151.86,195.4c-2.66,0-5.01,0.67-7.06,1.99c-2.05,1.33-3.64,3.14-4.78,5.42
	c-1.14,2.29-1.71,4.92-1.71,7.9c0,2.92,0.57,5.56,1.71,7.9c1.14,2.34,2.74,4.17,4.78,5.5c2.05,1.33,4.4,1.99,7.06,1.99
	c2.66,0,5-0.66,7.02-1.99c2.02-1.33,3.61-3.16,4.79-5.5c1.17-2.34,1.76-4.97,1.76-7.9c0-2.98-0.59-5.61-1.76-7.9
	c-1.17-2.28-2.76-4.09-4.79-5.42C156.86,196.06,154.52,195.4,151.86,195.4"/>
<path class="st0" d="M215.18,189.74c0.9,0,1.66,0.31,2.27,0.92c0.61,0.61,0.92,1.37,0.92,2.27v35.17c0,0.9-0.31,1.67-0.92,2.31
	c-0.61,0.64-1.37,0.96-2.27,0.96c-0.96,0-1.74-0.32-2.35-0.96c-0.61-0.64-0.92-1.41-0.92-2.31v-7.58l1.52-0.16
	c0,1.22-0.4,2.51-1.2,3.87c-0.8,1.35-1.89,2.63-3.27,3.83c-1.38,1.2-3.01,2.18-4.86,2.95c-1.86,0.77-3.88,1.16-6.06,1.16
	c-3.62,0-6.87-0.94-9.77-2.83c-2.9-1.89-5.17-4.45-6.82-7.7c-1.65-3.24-2.47-6.94-2.47-11.08c0-4.2,0.84-7.91,2.51-11.12
	c1.67-3.22,3.93-5.74,6.78-7.58c2.84-1.83,6.05-2.75,9.61-2.75c2.29,0,4.41,0.37,6.38,1.12c1.97,0.74,3.68,1.76,5.14,3.03
	c1.46,1.27,2.59,2.68,3.39,4.23c0.8,1.54,1.2,3.08,1.2,4.63l-2.07-0.48v-8.69c0-0.9,0.3-1.66,0.92-2.27
	C213.44,190.04,214.22,189.74,215.18,189.74 M198.75,226.26c2.66,0,5-0.69,7.02-2.07c2.02-1.38,3.61-3.26,4.78-5.62
	c1.17-2.36,1.76-5.04,1.76-8.01c0-2.92-0.59-5.55-1.76-7.9c-1.17-2.34-2.76-4.2-4.78-5.58c-2.02-1.38-4.36-2.07-7.02-2.07
	c-2.61,0-4.93,0.68-6.98,2.03c-2.05,1.35-3.66,3.2-4.82,5.54c-1.17,2.34-1.76,5-1.76,7.97c0,2.98,0.57,5.65,1.71,8.01
	c1.14,2.37,2.74,4.24,4.78,5.62C193.74,225.57,196.09,226.26,198.75,226.26"/>
<path class="st0" d="M233.36,231.36c-0.91,0-1.66-0.32-2.27-0.96c-0.61-0.64-0.92-1.41-0.92-2.31v-34.69c0-0.96,0.31-1.74,0.92-2.35
	c0.61-0.61,1.37-0.92,2.27-0.92c0.96,0,1.73,0.31,2.31,0.92c0.58,0.61,0.88,1.4,0.88,2.35v10.45l-0.96-1.67
	c0.32-1.65,0.89-3.26,1.71-4.83c0.82-1.57,1.88-2.98,3.15-4.23c1.27-1.25,2.74-2.23,4.39-2.95c1.65-0.72,3.46-1.08,5.42-1.08
	c1.17,0,2.24,0.28,3.23,0.84c0.98,0.56,1.48,1.34,1.48,2.35c0,1.12-0.29,1.95-0.88,2.51c-0.58,0.56-1.25,0.84-1.99,0.84
	c-0.69,0-1.36-0.16-1.99-0.48c-0.64-0.32-1.43-0.48-2.39-0.48c-1.33,0-2.64,0.37-3.95,1.12c-1.3,0.74-2.5,1.77-3.59,3.07
	c-1.09,1.3-1.97,2.79-2.63,4.47c-0.67,1.67-1,3.47-1,5.38v19.38c0,0.9-0.31,1.67-0.92,2.31
	C235.02,231.05,234.27,231.36,233.36,231.36"/>
<path class="st0" d="M260.56,190.37h18.74c0.85,0,1.55,0.29,2.11,0.88c0.56,0.59,0.84,1.3,0.84,2.15c0,0.8-0.28,1.47-0.84,2.03
	c-0.56,0.56-1.26,0.84-2.11,0.84h-18.74c-0.8,0-1.5-0.29-2.11-0.88c-0.61-0.59-0.92-1.28-0.92-2.07c0-0.85,0.31-1.55,0.92-2.11
	C259.05,190.65,259.76,190.37,260.56,190.37 M268.93,179.53c0.9,0,1.65,0.32,2.23,0.96c0.58,0.64,0.88,1.41,0.88,2.31v38.44
	c0,1.28,0.19,2.23,0.56,2.87c0.37,0.64,0.86,1.08,1.48,1.32s1.21,0.36,1.79,0.36c0.53,0,1-0.09,1.4-0.28
	c0.4-0.19,0.86-0.28,1.4-0.28c0.53,0,1.02,0.25,1.48,0.76c0.45,0.51,0.68,1.16,0.68,1.95c0,0.96-0.56,1.77-1.67,2.43
	c-1.12,0.66-2.37,1-3.75,1c-0.74,0-1.66-0.05-2.75-0.16c-1.09-0.11-2.17-0.45-3.23-1.04c-1.06-0.58-1.95-1.55-2.67-2.91
	c-0.72-1.35-1.08-3.26-1.08-5.7V182.8c0-0.9,0.32-1.67,0.96-2.31C267.25,179.85,268.02,179.53,268.93,179.53"/>
<path class="st0" d="M309.76,232.16c-4.31,0-8.05-0.9-11.24-2.71c-3.19-1.81-5.66-4.29-7.42-7.46c-1.75-3.16-2.63-6.82-2.63-10.96
	c0-4.62,0.92-8.57,2.75-11.84c1.83-3.27,4.23-5.77,7.18-7.5c2.95-1.73,6.07-2.59,9.37-2.59c2.45,0,4.81,0.45,7.1,1.36
	c2.29,0.9,4.31,2.23,6.06,3.99c1.76,1.75,3.16,3.83,4.23,6.22c1.06,2.39,1.62,5.1,1.67,8.13c0,0.85-0.32,1.56-0.96,2.11
	c-0.64,0.56-1.38,0.84-2.23,0.84h-31.5l-1.44-5.5h30.62l-1.28,1.12v-1.76c-0.16-2.18-0.87-4.05-2.11-5.62
	c-1.25-1.57-2.76-2.78-4.54-3.63c-1.78-0.85-3.66-1.28-5.62-1.28c-1.6,0-3.18,0.29-4.74,0.88c-1.57,0.59-2.98,1.49-4.23,2.71
	c-1.25,1.22-2.26,2.82-3.03,4.78c-0.77,1.97-1.16,4.33-1.16,7.1c0,3.08,0.62,5.8,1.87,8.13c1.25,2.34,2.99,4.19,5.22,5.54
	c2.23,1.36,4.84,2.03,7.82,2.03c1.86,0,3.48-0.24,4.86-0.72c1.38-0.48,2.57-1.08,3.55-1.79s1.82-1.45,2.51-2.19
	c0.69-0.48,1.38-0.72,2.07-0.72c0.75,0,1.38,0.27,1.92,0.8c0.53,0.53,0.8,1.17,0.8,1.92c0,0.9-0.43,1.73-1.28,2.47
	c-1.54,1.65-3.57,3.08-6.1,4.31C315.33,231.55,312.63,232.16,309.76,232.16"/>
<path class="st0" d="M392.3,172.35c0.9,0,1.66,0.31,2.27,0.92c0.61,0.61,0.92,1.4,0.92,2.35v52.47c0,0.9-0.31,1.67-0.92,2.31
	c-0.61,0.64-1.37,0.96-2.27,0.96c-0.96,0-1.74-0.32-2.35-0.96c-0.61-0.64-0.92-1.41-0.92-2.31v-7.58l1.52-0.48
	c0,1.22-0.39,2.54-1.16,3.95c-0.77,1.41-1.86,2.74-3.27,3.99c-1.41,1.25-3.05,2.26-4.9,3.03c-1.86,0.77-3.88,1.16-6.06,1.16
	c-3.62,0-6.86-0.93-9.73-2.79c-2.87-1.86-5.14-4.41-6.82-7.66c-1.67-3.24-2.51-6.94-2.51-11.08c0-4.2,0.84-7.92,2.51-11.17
	c1.67-3.24,3.93-5.78,6.78-7.62c2.84-1.83,6.05-2.75,9.61-2.75c2.23,0,4.32,0.37,6.26,1.12c1.94,0.74,3.65,1.76,5.14,3.03
	c1.49,1.27,2.64,2.68,3.47,4.23c0.82,1.54,1.24,3.08,1.24,4.63l-2.07-0.48v-26c0-0.9,0.3-1.68,0.92-2.31
	C390.55,172.67,391.34,172.35,392.3,172.35 M375.87,226.26c2.66,0,5-0.68,7.02-2.03c2.02-1.36,3.62-3.22,4.78-5.58
	c1.17-2.36,1.76-5.04,1.76-8.01c0-2.98-0.59-5.65-1.76-8.02c-1.17-2.36-2.76-4.23-4.78-5.58c-2.02-1.36-4.36-2.03-7.02-2.03
	c-2.61,0-4.93,0.68-6.98,2.03c-2.05,1.35-3.66,3.22-4.82,5.58c-1.17,2.37-1.75,5.04-1.75,8.02c0,2.92,0.58,5.57,1.75,7.93
	c1.17,2.37,2.78,4.24,4.82,5.62C370.94,225.57,373.26,226.26,375.87,226.26"/>
<path class="st0" d="M426.35,232.16c-4.31,0-8.05-0.9-11.24-2.71c-3.19-1.81-5.66-4.29-7.42-7.46c-1.75-3.16-2.63-6.82-2.63-10.96
	c0-4.62,0.92-8.57,2.75-11.84c1.83-3.27,4.23-5.77,7.18-7.5c2.95-1.73,6.07-2.59,9.37-2.59c2.45,0,4.81,0.45,7.1,1.36
	c2.29,0.9,4.31,2.23,6.06,3.99c1.76,1.75,3.16,3.83,4.23,6.22c1.06,2.39,1.62,5.1,1.67,8.13c0,0.85-0.32,1.56-0.96,2.11
	c-0.64,0.56-1.38,0.84-2.23,0.84h-31.5l-1.44-5.5h30.62l-1.28,1.12v-1.76c-0.16-2.18-0.86-4.05-2.11-5.62
	c-1.25-1.57-2.76-2.78-4.54-3.63c-1.78-0.85-3.66-1.28-5.62-1.28c-1.6,0-3.18,0.29-4.74,0.88c-1.57,0.59-2.98,1.49-4.23,2.71
	c-1.25,1.22-2.26,2.82-3.03,4.78c-0.77,1.97-1.16,4.33-1.16,7.1c0,3.08,0.62,5.8,1.87,8.13c1.25,2.34,2.99,4.19,5.22,5.54
	c2.23,1.36,4.84,2.03,7.82,2.03c1.86,0,3.48-0.24,4.86-0.72c1.38-0.48,2.57-1.08,3.55-1.79s1.82-1.45,2.51-2.19
	c0.69-0.48,1.38-0.72,2.07-0.72c0.74,0,1.38,0.27,1.91,0.8c0.53,0.53,0.8,1.17,0.8,1.92c0,0.9-0.43,1.73-1.28,2.47
	c-1.54,1.65-3.57,3.08-6.1,4.31C431.92,231.55,429.22,232.16,426.35,232.16"/>
<path class="st0" d="M460,228.09c0,0.9-0.32,1.68-0.96,2.31c-0.64,0.64-1.41,0.96-2.31,0.96c-0.9,0-1.66-0.32-2.27-0.96
	c-0.61-0.64-0.92-1.41-0.92-2.31v-52.47c0-0.9,0.32-1.67,0.96-2.31c0.64-0.64,1.41-0.96,2.31-0.96c0.96,0,1.73,0.32,2.31,0.96
	c0.58,0.64,0.88,1.41,0.88,2.31V228.09z"/>
<path class="st0" d="M512.55,189.1c2.76,0,5.23,0.29,7.42,0.88c2.18,0.59,3.91,1.38,5.18,2.39c1.28,1.01,1.91,2.15,1.91,3.43
	c0,0.74-0.24,1.43-0.72,2.07c-0.48,0.64-1.14,0.96-1.99,0.96c-0.69,0-1.26-0.15-1.71-0.44c-0.45-0.29-0.88-0.64-1.28-1.04
	c-0.4-0.4-0.94-0.78-1.64-1.16c-0.64-0.32-1.57-0.6-2.79-0.84c-1.22-0.24-2.45-0.36-3.67-0.36c-2.92,0-5.49,0.69-7.7,2.07
	c-2.21,1.38-3.95,3.24-5.22,5.58c-1.28,2.34-1.91,5-1.91,7.97c0,2.98,0.61,5.64,1.83,7.98c1.22,2.34,2.92,4.2,5.1,5.58
	c2.18,1.38,4.71,2.07,7.58,2.07c1.86,0,3.34-0.16,4.43-0.48c1.09-0.32,2.03-0.69,2.83-1.12c0.9-0.53,1.61-1.06,2.11-1.59
	c0.51-0.53,1.21-0.8,2.11-0.8c0.9,0,1.61,0.29,2.11,0.88c0.51,0.59,0.76,1.3,0.76,2.15c0,1.01-0.67,2.05-1.99,3.11
	c-1.33,1.06-3.14,1.95-5.42,2.67c-2.29,0.72-4.84,1.08-7.66,1.08c-4.04,0-7.58-0.94-10.61-2.83c-3.03-1.89-5.38-4.47-7.06-7.73
	c-1.67-3.27-2.51-6.93-2.51-10.97c0-4.04,0.86-7.68,2.59-10.92c1.73-3.24,4.13-5.82,7.22-7.73
	C504.95,190.06,508.51,189.1,512.55,189.1"/>
<path class="st0" d="M538.55,184.15c-1.33,0-2.31-0.27-2.95-0.8c-0.64-0.53-0.96-1.36-0.96-2.47v-1.12c0-1.12,0.34-1.94,1.04-2.47
	c0.69-0.53,1.67-0.8,2.95-0.8c1.28,0,2.23,0.27,2.87,0.8c0.64,0.53,0.96,1.36,0.96,2.47v1.12c0,1.12-0.33,1.94-1,2.47
	C540.8,183.89,539.83,184.15,538.55,184.15 M541.82,228.09c0,0.9-0.31,1.68-0.92,2.31c-0.61,0.64-1.37,0.96-2.27,0.96
	c-0.96,0-1.74-0.32-2.35-0.96c-0.61-0.64-0.92-1.41-0.92-2.31v-35.33c0-0.9,0.3-1.68,0.92-2.31c0.61-0.64,1.4-0.96,2.35-0.96
	c0.9,0,1.66,0.32,2.27,0.96c0.61,0.64,0.92,1.41,0.92,2.31V228.09z"/>
<path class="st0" d="M571.57,189.1c2.76,0,5.24,0.29,7.42,0.88c2.18,0.59,3.91,1.38,5.18,2.39c1.28,1.01,1.91,2.15,1.91,3.43
	c0,0.74-0.24,1.43-0.72,2.07c-0.48,0.64-1.14,0.96-1.99,0.96c-0.69,0-1.26-0.15-1.71-0.44c-0.45-0.29-0.88-0.64-1.28-1.04
	c-0.4-0.4-0.94-0.78-1.64-1.16c-0.64-0.32-1.57-0.6-2.79-0.84c-1.22-0.24-2.45-0.36-3.67-0.36c-2.92,0-5.49,0.69-7.7,2.07
	c-2.21,1.38-3.95,3.24-5.22,5.58c-1.28,2.34-1.91,5-1.91,7.97c0,2.98,0.61,5.64,1.83,7.98c1.22,2.34,2.92,4.2,5.1,5.58
	c2.18,1.38,4.71,2.07,7.58,2.07c1.86,0,3.34-0.16,4.43-0.48c1.09-0.32,2.03-0.69,2.83-1.12c0.9-0.53,1.61-1.06,2.11-1.59
	c0.51-0.53,1.21-0.8,2.11-0.8s1.61,0.29,2.11,0.88c0.51,0.59,0.76,1.3,0.76,2.15c0,1.01-0.67,2.05-1.99,3.11
	c-1.33,1.06-3.14,1.95-5.42,2.67c-2.29,0.72-4.84,1.08-7.66,1.08c-4.04,0-7.58-0.94-10.61-2.83c-3.03-1.89-5.38-4.47-7.06-7.73
	c-1.67-3.27-2.51-6.93-2.51-10.97c0-4.04,0.86-7.68,2.59-10.92c1.73-3.24,4.13-5.82,7.22-7.73
	C563.96,190.06,567.52,189.1,571.57,189.1"/>
<path class="st0" d="M601.71,228.09c0,0.9-0.32,1.68-0.96,2.31c-0.64,0.64-1.41,0.96-2.31,0.96c-0.9,0-1.66-0.32-2.27-0.96
	c-0.61-0.64-0.92-1.41-0.92-2.31v-52.47c0-0.9,0.32-1.67,0.96-2.31c0.64-0.64,1.41-0.96,2.31-0.96c0.96,0,1.73,0.32,2.31,0.96
	c0.58,0.64,0.88,1.41,0.88,2.31V228.09z"/>
<path class="st0" d="M652.43,210.63c0,4.15-0.92,7.84-2.75,11.09c-1.83,3.24-4.31,5.79-7.42,7.66c-3.11,1.86-6.61,2.79-10.49,2.79
	c-3.88,0-7.39-0.93-10.53-2.79c-3.14-1.86-5.62-4.41-7.46-7.66c-1.83-3.24-2.75-6.94-2.75-11.09c0-4.15,0.92-7.84,2.75-11.08
	c1.83-3.24,4.32-5.79,7.46-7.66c3.14-1.86,6.65-2.79,10.53-2.79c3.88,0,7.38,0.93,10.49,2.79c3.11,1.86,5.58,4.41,7.42,7.66
	C651.51,202.79,652.43,206.48,652.43,210.63 M645.97,210.63c0-3.08-0.63-5.78-1.88-8.09c-1.25-2.31-2.95-4.15-5.1-5.5
	c-2.15-1.36-4.56-2.03-7.22-2.03c-2.71,0-5.14,0.68-7.3,2.03c-2.15,1.36-3.87,3.19-5.14,5.5c-1.28,2.31-1.92,5.01-1.92,8.09
	c0,3.03,0.64,5.72,1.92,8.05c1.27,2.34,2.99,4.19,5.14,5.54c2.15,1.36,4.59,2.03,7.3,2.03c2.66,0,5.06-0.68,7.22-2.03
	c2.15-1.36,3.85-3.2,5.1-5.54C645.34,216.35,645.97,213.66,645.97,210.63"/>
<path class="st0" d="M388.67,122.33c-3.32-2.72-5.67-6.74-7.44-11.6"/>
<path class="st0" d="M380.55,129.66c4.49,4.39,10.45,7.14,18.53,7.41"/>
<path class="st0" d="M689.47,78.14c-0.67,1.12-1.36,2.22-2.05,3.32c-3.85,6.1-7.85,11.99-12.16,17.45c0.58-1.34,1.09-2.72,1.51-4.12
	c0.11-0.35,0.21-0.7,0.3-1.05c0.17-0.52,0.31-1.05,0.43-1.59c0.14-0.55,0.26-1.09,0.37-1.64c0.6-2.93,0.92-5.96,0.92-9.05
	c0-1.51-0.08-3.01-0.23-4.49c-0.01-0.21-0.05-0.44-0.08-0.66c0-0.03,0-0.08-0.01-0.11c-0.03-0.46-0.09-0.9-0.17-1.36
	c0-0.03-0.02-0.05-0.02-0.08c-0.03-0.27-0.08-0.55-0.14-0.83c-0.08-0.52-0.17-1.01-0.27-1.51c-0.14-0.73-0.31-1.45-0.5-2.17
	c-0.17-0.72-0.37-1.42-0.6-2.12c-0.21-0.7-0.44-1.41-0.7-2.09v-0.02c-0.12-0.34-0.26-0.67-0.4-1.01c-0.09-0.24-0.18-0.47-0.28-0.7
	c-0.05-0.11-0.09-0.2-0.14-0.31c-0.27-0.67-0.58-1.33-0.9-1.99c-0.31-0.66-0.64-1.31-0.99-1.94c-0.34-0.64-0.69-1.27-1.07-1.88
	c-0.37-0.63-0.78-1.25-1.19-1.86c-0.24-0.35-0.49-0.7-0.75-1.05c-0.18-0.28-0.38-0.54-0.6-0.81c0-0.02-0.02-0.02-0.03-0.03
	c-0.26-0.38-0.57-0.76-0.89-1.13c-0.03-0.03-0.06-0.08-0.09-0.11c-0.06-0.11-0.15-0.23-0.27-0.34c-0.03-0.05-0.08-0.09-0.11-0.14
	c-0.27-0.37-0.58-0.72-0.92-1.05c-0.01-0.02-0.03-0.03-0.05-0.05c-0.05-0.06-0.11-0.12-0.17-0.18c-0.05-0.09-0.14-0.18-0.24-0.28
	c-0.05-0.05-0.09-0.11-0.14-0.15c-0.29-0.34-0.6-0.67-0.92-0.96c-0.04-0.05-0.09-0.09-0.14-0.14c-0.05-0.06-0.11-0.12-0.15-0.17
	c-0.12-0.12-0.23-0.23-0.34-0.32c-0.4-0.43-0.81-0.81-1.22-1.16c-0.54-0.5-1.07-0.96-1.62-1.41c-0.44-0.37-0.89-0.72-1.34-1.07
	c-0.14-0.11-0.29-0.21-0.43-0.32c-0.6-0.44-1.21-0.87-1.82-1.28c-0.31-0.21-0.61-0.41-0.93-0.6c-0.06-0.05-0.14-0.09-0.2-0.12
	c-0.3-0.23-0.63-0.41-0.93-0.58c-0.09-0.06-0.2-0.11-0.29-0.17c-0.4-0.24-0.81-0.46-1.21-0.69c-0.63-0.35-1.25-0.67-1.9-0.98
	c-0.01,0-0.04-0.02-0.08-0.03c-0.64-0.31-1.3-0.61-1.96-0.89c-0.55-0.24-1.11-0.46-1.68-0.67c-0.11-0.05-0.21-0.08-0.32-0.12
	c-0.06-0.03-0.11-0.05-0.15-0.06c-0.66-0.24-1.3-0.46-1.97-0.66c-1.4-0.44-2.84-0.81-4.29-1.1c-0.02-0.02-0.03-0.02-0.05-0.02
	c-0.32-0.06-0.63-0.12-0.95-0.18c-0.4-0.08-0.81-0.14-1.21-0.2c-0.69-0.11-1.39-0.2-2.11-0.28c-0.14-0.02-0.27-0.03-0.41-0.03
	c-0.09-0.01-0.17-0.01-0.26-0.03c-0.57-0.06-1.15-0.09-1.71-0.12h-0.03c-0.72-0.05-1.47-0.06-2.2-0.06h-0.11
	c-0.21,0-0.44,0-0.66,0.02c-0.24,0-0.49,0.02-0.72,0.02h-0.27c-0.11,0.02-0.23,0.02-0.34,0.02c-0.08,0-0.14,0.02-0.21,0.02
	c-0.08,0.02-0.15,0.02-0.23,0.02h-0.17c-0.46,0.02-0.9,0.05-1.36,0.11c-0.17,0-0.35,0.02-0.52,0.03c-0.01,0-0.05,0-0.06,0.02
	c-0.05,0-0.08,0-0.11,0.02c-0.11,0-0.23,0.02-0.34,0.03c-0.34,0.03-0.67,0.08-0.99,0.12c-0.05,0-0.09,0.02-0.14,0.02
	c-0.09,0.01-0.2,0.01-0.29,0.03c-0.14,0.03-0.29,0.04-0.43,0.08h-0.06c-0.03,0-0.05,0.02-0.08,0.02c-0.05,0.02-0.11,0.02-0.15,0.03
	c-0.43,0.06-0.86,0.12-1.27,0.2c-0.4,0.08-0.79,0.15-1.19,0.23c-0.78,0.15-1.54,0.34-2.29,0.53c-0.76,0.2-1.51,0.41-2.25,0.66
	c-0.7,0.21-1.39,0.46-2.06,0.72c-0.08,0.03-0.14,0.06-0.2,0.08c-0.7,0.26-1.39,0.54-2.06,0.84c-0.37,0.15-0.75,0.32-1.12,0.5
	c-0.5,0.24-1.01,0.49-1.51,0.73c-0.6,0.31-1.18,0.61-1.76,0.95c-0.67,0.38-1.34,0.78-2.02,1.19c-0.35,0.21-0.7,0.44-1.05,0.69
	c-0.69,0.43-1.36,0.9-2.02,1.39c-0.34,0.21-0.66,0.46-0.99,0.73c-0.66,0.47-1.3,0.98-1.92,1.51c-0.32,0.24-0.64,0.51-0.95,0.8
	c-0.32,0.26-0.64,0.54-0.95,0.82c-0.29,0.24-0.58,0.52-0.87,0.78c-0.05,0.02-0.08,0.05-0.11,0.09c-0.6,0.55-1.19,1.12-1.77,1.7
	c-1.33,1.27-2.61,2.63-3.86,4.02c-0.47,0.52-0.93,1.05-1.36,1.59c-0.6,0.66-1.15,1.31-1.66,1.99c-0.28,0.34-0.55,0.69-0.81,1.02
	c-0.55,0.69-1.12,1.39-1.65,2.11c-3.82,4.97-7.36,10.34-10.74,15.86c-0.53,0.84-1.05,1.7-1.57,2.55
	c-5.13,8.49-9.99,17.2-15.03,25.12c-5.93,9.32-12.08,17.57-19.19,23.15c-0.47,0.37-0.95,0.72-1.44,1.07
	c-0.02,0.02-0.03,0.02-0.05,0.03c-0.5,0.35-1.02,0.72-1.54,1.05c-0.52,0.34-1.04,0.66-1.57,0.96c-0.43,0.24-0.85,0.49-1.28,0.72
	c-0.66,0.34-1.3,0.66-1.97,0.95c-1.11,0.49-2.25,0.92-3.41,1.27c-0.57,0.18-1.16,0.35-1.74,0.49c-0.58,0.14-1.16,0.26-1.76,0.37
	c-0.02,0.02-0.03,0.02-0.04,0.02c-0.03,0-0.06,0.02-0.09,0.02c-0.34,0.06-0.66,0.11-0.99,0.15c-0.31,0.05-0.61,0.08-0.93,0.12
	c-0.29,0.03-0.58,0.05-0.89,0.08h-0.06c-0.24,0.03-0.5,0.05-0.75,0.05c-0.43,0.03-0.87,0.05-1.31,0.05h-0.52
	c-0.38,0-0.76-0.02-1.15-0.03c-4.1-0.2-7.99-1.21-11.5-2.87c-2.51-1.18-4.83-2.69-6.89-4.46c-0.03-0.03-0.06-0.05-0.09-0.08
	c-0.31-0.31-0.61-0.63-0.92-0.95c-0.29-0.32-0.58-0.64-0.86-0.98c-0.29-0.34-0.57-0.67-0.83-1.02c-0.37-0.47-0.72-0.95-1.05-1.44
	c-0.29-0.43-0.58-0.87-0.86-1.31c-0.05-0.06-0.09-0.14-0.14-0.21c-0.02-0.03-0.03-0.05-0.05-0.08c-0.18-0.29-0.37-0.61-0.55-0.93
	c-0.24-0.44-0.49-0.89-0.73-1.34c-0.58-1.13-1.15-2.32-1.66-3.55c-0.15-0.35-0.31-0.72-0.44-1.08c-0.06-0.15-0.12-0.32-0.18-0.47
	c-0.3-0.81-0.61-1.64-0.9-2.49c-0.14-0.4-0.26-0.79-0.4-1.21c-0.11-0.34-0.21-0.69-0.32-1.02c-0.17-0.55-0.32-1.1-0.47-1.65
	c-0.06-0.21-0.12-0.44-0.18-0.67c-0.24-0.87-0.47-1.77-0.69-2.67c-0.02-0.06-0.03-0.11-0.05-0.17c-0.17-0.72-0.34-1.45-0.5-2.2
	c-0.26-1.22-0.5-2.46-0.75-3.71c-0.12-0.64-0.24-1.3-0.35-1.95c-0.34-1.91-0.66-3.85-0.95-5.79c-0.23-1.51-0.44-3.03-0.66-4.54
	c-0.11-0.84-0.23-1.68-0.34-2.52c-0.11-0.78-0.21-1.57-0.32-2.35c-0.08-0.63-0.17-1.25-0.24-1.88c-0.23-1.74-0.47-3.47-0.72-5.18
	c-0.09-0.67-0.18-1.34-0.28-2c-0.29-1.99-0.59-3.96-0.92-5.87c-0.18-1.12-0.38-2.2-0.58-3.27c-0.21-1.07-0.43-2.12-0.66-3.16
	c-0.11-0.49-0.21-0.98-0.34-1.47c-0.34-1.44-0.69-2.83-1.08-4.17c-0.17-0.58-0.35-1.16-0.53-1.71c-0.06-0.17-0.12-0.34-0.17-0.5
	c-0.24-0.75-0.51-1.47-0.79-2.18c-0.17-0.46-0.35-0.92-0.55-1.36c0-0.03-0.02-0.06-0.03-0.08c-0.11-0.24-0.21-0.51-0.34-0.75
	c-0.24-0.55-0.49-1.1-0.76-1.62c0-0.02-0.02-0.03-0.03-0.04c-0.03-0.05-0.05-0.09-0.08-0.14c-0.79-1.74-1.85-3.31-3.12-4.74
	c-0.08-0.11-0.17-0.21-0.26-0.31c-0.26-0.31-0.54-0.6-0.83-0.89c-0.18-0.2-0.37-0.38-0.57-0.57c-0.26-0.24-0.53-0.49-0.83-0.7
	c-0.14-0.14-0.29-0.26-0.44-0.37c-0.24-0.2-0.49-0.38-0.73-0.55c-0.23-0.17-0.49-0.34-0.75-0.49c-0.52-0.34-1.05-0.63-1.6-0.89
	c-0.28-0.14-0.55-0.26-0.84-0.38c-0.63-0.26-1.25-0.47-1.92-0.67c-0.26-0.08-0.54-0.15-0.81-0.21c-0.3-0.08-0.61-0.14-0.92-0.2
	c-0.06,0-0.11-0.02-0.15-0.03c-0.31-0.06-0.61-0.11-0.93-0.14c-0.29-0.04-0.58-0.08-0.87-0.11c-0.12,0-0.23-0.02-0.35-0.03
	c-0.63-0.05-1.25-0.08-1.91-0.08c-11.89,0-17.69,8.11-21.11,19.72c-2.15,7.35-3.36,16.12-4.57,25.12
	c-1.13,8.49-2.25,17.19-4.16,25.12c-0.26,1.1-0.54,2.18-0.84,3.24c-2.22,7.99-5.41,15-10.47,19.91c-5,4.31-11.43,7.03-18.47,7.35
	c-0.47,0.02-0.95,0.03-1.42,0.03c-0.49,0-0.96-0.02-1.42-0.03c-7.09-0.32-13.54-3.07-18.53-7.41c-5-4.89-8.16-11.83-10.37-19.74
	c-0.06-0.21-0.12-0.44-0.18-0.67c-0.25-0.87-0.47-1.77-0.69-2.67c-1.91-7.93-3.02-16.62-4.15-25.12c-1.19-9-2.4-17.77-4.57-25.12
	c-3.41-11.61-9.21-19.72-21.1-19.72c-0.34,0-0.67,0.02-1.01,0.03c-5.87,0.23-10.19,2.52-13.45,6.26c-0.09,0.09-0.18,0.2-0.26,0.31
	c-1.3,1.45-2.38,3.09-3.19,4.87c-0.01,0.01-0.03,0.03-0.03,0.04c-1.25,2.46-2.29,5.21-3.18,8.21c-1.57,5.38-2.64,11.52-3.58,17.94
	c-0.34,2.37-0.67,4.77-0.99,7.18c-1.13,8.49-2.25,17.19-4.16,25.12c-0.21,0.9-0.44,1.8-0.69,2.67c-0.06,0.23-0.12,0.46-0.18,0.67
	c-0.61,2.21-1.31,4.34-2.09,6.37c-0.2,0.54-0.41,1.05-0.63,1.56c-0.73,1.71-1.53,3.35-2.4,4.89c-0.2,0.35-0.4,0.69-0.6,1.01
	c-0.64,1.04-1.31,2.03-2.05,2.96c-0.54,0.7-1.1,1.38-1.68,2c-0.31,0.32-0.61,0.64-0.92,0.95c-0.03,0.03-0.06,0.05-0.09,0.08
	c-2.06,1.77-4.38,3.28-6.89,4.46c-3.51,1.67-7.41,2.67-11.51,2.87c-0.44,0.02-0.89,0.03-1.33,0.03h-0.21
	c-0.49,0-0.96-0.02-1.44-0.05c-0.24,0-0.5-0.02-0.75-0.05h-0.06c-0.31-0.03-0.6-0.05-0.89-0.08c-0.32-0.05-0.63-0.08-0.93-0.12
	c-0.34-0.05-0.66-0.09-0.99-0.15c-0.03,0-0.06-0.02-0.09-0.02c-4.84-0.87-9.24-2.9-13.32-5.82c-0.02-0.02-0.03-0.02-0.05-0.03
	c-7.72-5.55-14.3-14.27-20.63-24.22c-5.04-7.91-9.9-16.62-15.03-25.12c-0.52-0.85-1.04-1.71-1.57-2.55
	c-4.98-8.1-10.27-15.91-16.23-22.57c-8.82-9.86-19.13-17.19-32.18-19.16c-0.4-0.08-0.8-0.12-1.19-0.17
	c-0.66-0.09-1.33-0.17-2.02-0.21c-0.43-0.05-0.87-0.08-1.31-0.09c-0.44-0.03-0.9-0.05-1.34-0.06c-0.43-0.03-0.86-0.03-1.3-0.03
	h-0.11c-0.75,0-1.5,0.02-2.23,0.06c-14.48,0.73-27.16,8.37-34.82,19.66c-1.7,2.49-3.13,5.15-4.29,7.97
	c-2.18,5.29-3.39,11.08-3.39,17.14c0,6.19,1.25,12.1,3.53,17.46c-5.07-6.45-9.76-13.52-14.22-20.79c0.46-7.81,2.52-15.17,5.88-21.79
	c6.72-13.28,18.63-23.48,33.05-27.99c4.55-1.42,9.35-2.26,14.32-2.46c0.72-0.05,1.45-0.06,2.18-0.06h0.11c1.01,0,2,0.03,2.98,0.08
	c22.43,1.08,37.97,14.1,50.34,30.44c5.99,7.91,11.24,16.62,16.18,25.12c4.06,7,7.91,13.86,11.78,20.03
	c1.12,1.76,2.22,3.45,3.33,5.09c5.64,8.28,11.46,14.77,18.21,17.78c0.29,0.14,0.58,0.26,0.87,0.38c0.29,0.14,0.6,0.26,0.9,0.37
	c0.31,0.12,0.63,0.23,0.95,0.32c0.3,0.09,0.61,0.18,0.9,0.24c0.26,0.06,0.52,0.12,0.79,0.18c0.26,0.06,0.52,0.11,0.79,0.15
	c0.26,0.05,0.52,0.09,0.78,0.12c0.06,0.02,0.14,0.02,0.2,0.02c0.44,0.06,0.89,0.09,1.35,0.12c0.3,0.02,0.61,0.03,0.93,0.03h0.15
	c0.49,0,0.96-0.03,1.44-0.06c0.06,0,0.12-0.02,0.18-0.02c0.27,0,0.53-0.03,0.79-0.08c0.55-0.03,1.07-0.11,1.57-0.23
	c2.98-0.53,5.49-1.73,7.61-3.44c0.05-0.03,0.09-0.06,0.14-0.11c1.24-0.93,2.37-2,3.38-3.19c0.34-0.41,0.66-0.84,0.98-1.3
	c1.47-2.08,2.54-4.48,3.1-7.06c0.49-1.36,0.93-2.77,1.34-4.25c1.57-5.59,2.6-11.99,3.5-18.7c0.29-2.11,0.57-4.26,0.84-6.42
	c1.08-8.49,2.17-17.2,4.1-25.12c0.44-1.85,0.93-3.65,1.48-5.39c0.55-1.76,1.16-3.47,1.85-5.1c0.09-0.21,0.17-0.43,0.26-0.64
	c0.67-1.59,1.42-3.1,2.23-4.55c0.06-0.09,0.11-0.18,0.17-0.29c4.8-8.31,12.18-13.92,24-14.47c0.34-0.02,0.66-0.03,0.99-0.05
	c0.34-0.02,0.69-0.02,1.02-0.02c17.74,0,25.99,10.7,30.51,25.12c0.55,1.74,1.04,3.54,1.48,5.39c1.92,7.91,3.02,16.62,4.09,25.12
	c0.27,2.16,0.55,4.31,0.84,6.42c0.9,6.71,1.92,13.11,3.5,18.7c0.4,1.44,0.84,2.81,1.33,4.14v0.02c1.01,4.72,3.71,8.81,7.44,11.6
	c0.02,0.03,0.03,0.05,0.05,0.05c2.69,2.21,6,3.59,10.14,3.86c0.54,0.05,1.09,0.06,1.64,0.06s1.08-0.02,1.62-0.06
	c4.08-0.26,7.38-1.59,10.04-3.76c0.05-0.03,0.09-0.06,0.14-0.11c3.76-2.8,6.48-6.91,7.49-11.64c0.49-1.33,0.93-2.72,1.33-4.16
	c1.57-5.59,2.6-11.99,3.5-18.7c0.29-2.11,0.57-4.26,0.84-6.42c1.07-8.49,2.17-17.2,4.1-25.12c4.14-17.07,12.1-30.51,31.99-30.51
	c0.34,0,0.69,0,1.02,0.02c0.58,0.02,1.16,0.05,1.71,0.09c0.49,0.02,0.98,0.06,1.45,0.12c1.39,0.14,2.7,0.35,3.96,0.64
	c0.03,0.02,0.05,0.02,0.06,0.02c0.64,0.15,1.27,0.32,1.88,0.5c0.6,0.17,1.18,0.37,1.74,0.58c0.01,0.02,0.03,0.02,0.05,0.03
	c0.41,0.15,0.81,0.31,1.21,0.49c0.06,0.02,0.12,0.05,0.18,0.08c0.2,0.08,0.38,0.17,0.57,0.28c0.37,0.15,0.72,0.32,1.05,0.52
	c0.26,0.14,0.53,0.29,0.79,0.44c0.29,0.15,0.58,0.32,0.86,0.52c0.2,0.11,0.38,0.23,0.57,0.37c0.17,0.09,0.31,0.2,0.46,0.31
	c0.43,0.29,0.83,0.61,1.24,0.93c0.57,0.43,1.1,0.9,1.62,1.41c0.18,0.18,0.38,0.37,0.57,0.55c0.24,0.23,0.47,0.46,0.66,0.69
	c0.23,0.23,0.44,0.46,0.64,0.7c0.23,0.24,0.44,0.49,0.63,0.73c0.15,0.18,0.3,0.38,0.46,0.58c0.53,0.66,1.02,1.34,1.48,2.06
	c0.11,0.15,0.21,0.32,0.32,0.49c0.31,0.46,0.58,0.92,0.86,1.39c0.06,0.11,0.11,0.2,0.17,0.29c0.4,0.73,0.79,1.47,1.16,2.23
	c0.38,0.76,0.73,1.53,1.07,2.32c0.09,0.21,0.17,0.43,0.26,0.64c0.29,0.69,0.57,1.41,0.83,2.12c0.09,0.21,0.17,0.44,0.24,0.67
	c0.18,0.5,0.35,1.01,0.52,1.51c0.09,0.26,0.18,0.54,0.26,0.8c0.55,1.74,1.04,3.54,1.48,5.39c0.02,0.06,0.03,0.12,0.05,0.18
	c0.17,0.72,0.34,1.47,0.5,2.2c0.05,0.21,0.09,0.43,0.14,0.64c0.2,0.9,0.38,1.82,0.55,2.73c0.08,0.38,0.15,0.76,0.21,1.15
	c0.21,1.15,0.41,2.29,0.6,3.45c0.11,0.61,0.2,1.22,0.29,1.85c0.03,0.21,0.08,0.44,0.11,0.67c0.23,1.5,0.44,2.99,0.64,4.49
	c0.11,0.79,0.21,1.57,0.32,2.35c0.23,1.8,0.46,3.61,0.69,5.39c0.28,2.16,0.55,4.31,0.84,6.42c0.04,0.34,0.09,0.67,0.14,1.01
	c0.11,0.76,0.21,1.53,0.32,2.28c0.32,2.22,0.66,4.39,1.04,6.48c0.14,0.76,0.27,1.51,0.43,2.26c0.15,0.79,0.32,1.57,0.49,2.34
	c0.14,0.6,0.28,1.19,0.41,1.77c0.21,0.87,0.44,1.73,0.67,2.57c0.21,0.73,0.43,1.47,0.64,2.17c0.14,0.41,0.26,0.82,0.41,1.22
	c0.09,0.29,0.18,0.56,0.29,0.85c0.57,2.58,1.63,4.98,3.1,7.06c0.32,0.46,0.64,0.89,0.98,1.3c1.01,1.19,2.14,2.26,3.38,3.19
	c0.05,0.05,0.09,0.08,0.14,0.11c0.28,0.21,0.55,0.43,0.83,0.63c0.26,0.2,0.54,0.38,0.82,0.53c0.09,0.06,0.17,0.12,0.26,0.17
	c0.5,0.31,1.02,0.58,1.57,0.82c0.29,0.15,0.61,0.28,0.92,0.4c0.05,0.02,0.08,0.03,0.11,0.03c0.31,0.14,0.63,0.24,0.95,0.34
	c0.03,0,0.06,0.02,0.08,0.03c0.34,0.11,0.69,0.2,1.04,0.28c0.34,0.09,0.69,0.17,1.04,0.21c0.2,0.05,0.4,0.09,0.6,0.12
	c0.12,0.02,0.26,0.05,0.38,0.05c0.29,0.05,0.59,0.09,0.9,0.11c0.09,0.02,0.18,0.02,0.29,0.03c0.12,0.02,0.24,0.02,0.38,0.02
	c0.24,0.02,0.47,0.03,0.72,0.05c0.23,0,0.47,0.02,0.72,0.02h0.26c0.14,0,0.29,0,0.41-0.02c0.14,0,0.27,0,0.41-0.02
	c0.46-0.03,0.9-0.06,1.34-0.12c0.06,0,0.14,0,0.2-0.02h0.02c0.18-0.02,0.37-0.05,0.55-0.08c0.11-0.02,0.21-0.03,0.32-0.06
	c0.51-0.08,0.99-0.18,1.48-0.32c0.15-0.03,0.29-0.06,0.44-0.11c0.24-0.06,0.49-0.15,0.73-0.23c0.12-0.03,0.23-0.08,0.34-0.11
	c0.27-0.08,0.55-0.18,0.82-0.31c0.03,0,0.06-0.02,0.09-0.03c0.17-0.05,0.32-0.12,0.47-0.18c0.37-0.14,0.73-0.31,1.09-0.47
	c0.05-0.02,0.09-0.05,0.14-0.06c0.41-0.18,0.81-0.4,1.21-0.63c0.11-0.05,0.21-0.11,0.32-0.18c0.35-0.18,0.7-0.4,1.06-0.63
	c0.38-0.23,0.75-0.47,1.11-0.72c0.27-0.2,0.55-0.4,0.83-0.61c0.29-0.2,0.56-0.41,0.84-0.64c0.43-0.32,0.84-0.67,1.25-1.04
	c0.09-0.06,0.17-0.12,0.24-0.21c0.35-0.29,0.7-0.6,1.04-0.93c0.09-0.08,0.17-0.15,0.24-0.24c0.37-0.34,0.73-0.7,1.09-1.07
	c1.77-1.8,3.5-3.83,5.18-6.05c0.75-0.95,1.47-1.92,2.17-2.93c0.4-0.56,0.79-1.13,1.19-1.71c5.01-7.35,9.87-16.12,15.11-25.12
	c4.92-8.49,10.17-17.2,16.18-25.12c3.09-4.1,6.39-7.98,9.93-11.52c0.5-0.5,1.02-1.01,1.54-1.5c0.66-0.61,1.3-1.21,1.97-1.8
	c1.33-1.19,2.69-2.31,4.08-3.38c0.35-0.28,0.7-0.53,1.07-0.79c1.41-1.04,2.87-2.03,4.37-2.95c0.37-0.24,0.75-0.47,1.13-0.69
	c0.38-0.23,0.76-0.44,1.15-0.66c0.38-0.21,0.76-0.43,1.16-0.64c0.4-0.21,0.78-0.41,1.18-0.6c0.4-0.2,0.79-0.4,1.19-0.58
	c0.4-0.2,0.81-0.38,1.22-0.57c0.81-0.35,1.63-0.7,2.48-1.02c0.41-0.17,0.82-0.32,1.25-0.47c0.43-0.15,0.85-0.31,1.28-0.44
	c0.43-0.15,0.86-0.29,1.3-0.41c0.26-0.09,0.5-0.15,0.76-0.23c0.38-0.12,0.76-0.23,1.14-0.32c0.69-0.2,1.39-0.37,2.09-0.52
	c0.47-0.11,0.95-0.2,1.42-0.29c0.41-0.09,0.82-0.17,1.24-0.24c1.9-0.34,3.85-0.58,5.87-0.72h0.15c0.14-0.02,0.29-0.03,0.43-0.03
	c0.29-0.03,0.58-0.05,0.87-0.06h0.12c0.44-0.03,0.9-0.05,1.36-0.06c0.49,0,0.99-0.02,1.5-0.02h0.46c0.24,0,0.5,0,0.75,0.02
	c0.18,0,0.37,0,0.53,0.02c0.18,0.02,0.37,0.02,0.55,0.03c0.46,0.02,0.93,0.05,1.39,0.08c0.46,0.03,0.93,0.06,1.39,0.11
	c0.92,0.08,1.83,0.18,2.73,0.31c0.08,0.02,0.15,0.02,0.23,0.03c0.37,0.05,0.72,0.11,1.07,0.17c0.43,0.06,0.86,0.15,1.27,0.23
	c0.37,0.08,0.73,0.14,1.1,0.21c0.37,0.08,0.73,0.14,1.1,0.23c0.11,0.03,0.23,0.05,0.34,0.08c0.64,0.15,1.28,0.32,1.91,0.5
	c0.49,0.12,0.99,0.28,1.48,0.43c0.11,0.03,0.2,0.06,0.31,0.09c0.12,0.03,0.23,0.08,0.35,0.11c0.34,0.11,0.66,0.21,0.99,0.34
	c0.44,0.15,0.89,0.31,1.33,0.47c0.44,0.15,0.89,0.32,1.31,0.5c0.44,0.17,0.87,0.35,1.3,0.54c0.43,0.18,0.86,0.37,1.28,0.56
	c0.87,0.4,1.73,0.83,2.58,1.27c0.38,0.2,0.78,0.41,1.16,0.63c0.4,0.21,0.79,0.44,1.21,0.69c0.4,0.23,0.79,0.47,1.19,0.72h0.02
	c0.09,0.06,0.18,0.12,0.27,0.18c0.28,0.17,0.54,0.34,0.81,0.52c0.37,0.23,0.73,0.47,1.1,0.73c0.38,0.26,0.78,0.53,1.16,0.82
	c0.38,0.28,0.76,0.57,1.15,0.86c0.76,0.58,1.5,1.18,2.23,1.8c0.28,0.24,0.57,0.49,0.86,0.73c0.27,0.26,0.57,0.5,0.84,0.76
	c0.05,0.03,0.08,0.08,0.12,0.11c0.2,0.2,0.4,0.38,0.6,0.58c0.47,0.44,0.93,0.9,1.38,1.38c0.15,0.14,0.29,0.28,0.43,0.43
	c0.57,0.58,1.12,1.19,1.65,1.8c0.05,0.05,0.09,0.11,0.15,0.17c0.55,0.64,1.08,1.28,1.6,1.96c0.03,0.03,0.06,0.06,0.09,0.11
	c0.53,0.69,1.05,1.39,1.57,2.11c0,0,0.02,0.02,0.03,0.03c0.52,0.73,1.01,1.47,1.5,2.22c0.47,0.75,0.95,1.51,1.39,2.29
	c0.02,0.05,0.05,0.09,0.08,0.14c0.41,0.73,0.81,1.47,1.21,2.23c0.03,0.08,0.08,0.14,0.11,0.21c0.37,0.73,0.73,1.48,1.07,2.23
	c0.18,0.41,0.37,0.81,0.53,1.22c0.18,0.43,0.35,0.84,0.52,1.27c0.32,0.84,0.64,1.68,0.93,2.55c0.29,0.86,0.57,1.73,0.81,2.61
	c0.24,0.87,0.47,1.74,0.69,2.63v0.06c0.11,0.44,0.2,0.89,0.29,1.33c0.09,0.46,0.18,0.9,0.26,1.36c0.09,0.46,0.15,0.92,0.23,1.38
	c0.06,0.44,0.14,0.89,0.18,1.33c0.01,0.05,0.01,0.09,0.01,0.12c0.06,0.44,0.11,0.89,0.15,1.34c0.05,0.46,0.09,0.93,0.12,1.41
	C689.44,77.5,689.46,77.82,689.47,78.14"/>
<path class="st0" d="M222.46,86.47v0.02c-0.64,7.18-2.64,13.97-5.75,20.09c-9.18,18.1-27.96,30.53-49.65,30.53h-0.11
	c-0.93,0-1.85-0.03-2.75-0.08c-22.54-1.01-38.14-14.07-50.53-30.45c-5.99-7.93-11.25-16.62-16.18-25.12
	c-4.08-7.03-7.95-13.92-11.83-20.11c-1.1-1.73-2.18-3.41-3.27-5.01c-6.46-9.49-13.17-16.62-21.21-18.91c0,0-0.01,0-0.03-0.02
	c-0.54-0.15-1.07-0.29-1.62-0.4c-0.32-0.06-0.64-0.12-0.98-0.17c-0.3-0.06-0.63-0.09-0.95-0.12h-0.05
	c-0.34-0.05-0.66-0.06-0.99-0.08c-0.34-0.01-0.67-0.03-1.01-0.03c-10.89,0-19.73,8.83-19.73,19.72c0,10.89,8.83,19.72,19.73,19.72
	c6.45,0,12.41,1.99,17.32,5.39c7.96,5.5,13.19,14.7,13.19,25.12c0,16.85-13.66,30.53-30.51,30.53c-16.87,0-30.53-13.67-30.53-30.53
	h10.8c0,10.89,8.83,19.72,19.73,19.72c10.88,0,19.71-8.83,19.71-19.72c0-10.89-8.83-19.72-19.71-19.72
	c-6.45,0-12.42-1.99-17.34-5.39c-7.96-5.5-13.18-14.7-13.18-25.12c0-16.85,13.66-30.51,30.53-30.51c0.53,0,1.05,0.02,1.57,0.05
	c0.32,0.02,0.64,0.03,0.95,0.06c0.52,0.05,1.02,0.09,1.53,0.17c0.27,0.03,0.55,0.08,0.82,0.12c0.32,0.05,0.64,0.11,0.95,0.17
	c0.46,0.09,0.92,0.18,1.38,0.31c0.47,0.11,0.95,0.23,1.41,0.38c3.24,0.98,6.28,2.49,9.17,4.46c8.1,5.48,14.93,14.48,21.48,24.8
	c5.03,7.91,9.9,16.62,15.03,25.12c0.53,0.89,1.07,1.77,1.62,2.64c4.97,8.07,10.24,15.84,16.18,22.47
	c9.4,10.51,20.5,18.17,34.82,19.49c0.75,0.08,1.51,0.14,2.28,0.17c0.76,0.05,1.53,0.06,2.31,0.06c15.46,0,29.09-7.82,37.14-19.72
	c4.86-7.17,7.68-15.81,7.68-25.12c0-5.7-1.05-11.14-2.99-16.15c3.73,5.1,7.21,10.59,10.59,16.15
	C220.48,83.12,221.48,84.8,222.46,86.47"/>
<path class="st0" d="M578.54,86.33v0.02c0.64,7.18,2.64,13.97,5.74,20.09c9.18,18.1,27.96,30.53,49.65,30.53h0.11
	c0.93,0,1.85-0.03,2.75-0.08c22.54-1.01,38.14-14.07,50.53-30.45c5.99-7.93,11.24-16.62,16.18-25.12
	c4.08-7.03,7.95-13.92,11.83-20.11c1.1-1.73,2.18-3.41,3.27-5.01c6.46-9.49,13.17-16.62,21.21-18.91c0,0,0.01,0,0.03-0.02
	c0.54-0.15,1.07-0.29,1.62-0.4c0.32-0.06,0.64-0.12,0.98-0.17c0.3-0.06,0.63-0.09,0.95-0.12h0.05c0.34-0.05,0.66-0.06,0.99-0.08
	c0.34-0.01,0.67-0.03,1.01-0.03c10.89,0,19.73,8.83,19.73,19.72c0,10.89-8.83,19.72-19.73,19.72c-6.45,0-12.41,1.99-17.32,5.39
	c-7.96,5.5-13.19,14.7-13.19,25.12c0,16.85,13.66,30.53,30.51,30.53c16.87,0,30.53-13.67,30.53-30.53h-10.8
	c0,10.89-8.83,19.72-19.73,19.72c-10.88,0-19.71-8.83-19.71-19.72c0-10.89,8.83-19.72,19.71-19.72c6.45,0,12.42-1.99,17.34-5.39
	c7.96-5.5,13.18-14.7,13.18-25.12c0-16.85-13.66-30.51-30.53-30.51c-0.53,0-1.05,0.02-1.57,0.05c-0.32,0.02-0.64,0.03-0.95,0.06
	c-0.52,0.05-1.02,0.09-1.53,0.17c-0.28,0.03-0.55,0.08-0.83,0.12c-0.32,0.05-0.64,0.11-0.95,0.17c-0.46,0.09-0.92,0.18-1.38,0.31
	c-0.47,0.11-0.95,0.23-1.41,0.38c-3.24,0.98-6.28,2.49-9.17,4.46c-8.1,5.48-14.93,14.48-21.48,24.8
	c-5.03,7.91-9.9,16.62-15.03,25.12c-0.53,0.89-1.07,1.77-1.62,2.64c-4.97,8.07-10.24,15.84-16.18,22.47
	c-9.4,10.51-20.5,18.17-34.82,19.49c-0.75,0.08-1.51,0.14-2.28,0.17c-0.76,0.05-1.53,0.06-2.31,0.06
	c-15.46,0-29.09-7.82-37.14-19.72c-4.86-7.17-7.68-15.81-7.68-25.12c0-5.7,1.05-11.14,2.99-16.15c-3.73,5.1-7.21,10.59-10.59,16.15
	C580.52,82.98,579.52,84.66,578.54,86.33"/>
</svg>
