<?xml version="1.0" encoding="utf-8"?>
<!-- Generator: Adobe Illustrator 28.0.0, SVG Export Plug-In . SVG Version: 6.00 Build 0)  -->
<svg version="1.1" id="Capa_1" xmlns="http://www.w3.org/2000/svg" xmlns:xlink="http://www.w3.org/1999/xlink" x="0px" y="0px"
	 viewBox="0 0 842.6 842.6" style="enable-background:new 0 0 842.6 842.6;" xml:space="preserve">
<style type="text/css">
	.st0{fill:#2B6299;}
	.st1{display:none;}
	.st2{display:inline;}
	.st3{fill:#164368;}
	.st4{fill:#004C7F;}
	.st5{fill:#1B3356;}
</style>
<ellipse class="st0" cx="404.6" cy="378.8" rx="199.7" ry="81"/>
<g id="Carpeta_16" class="st1">
	<g id="Capa_34__x2B__Capa_35_xA0_Imagen" class="st2">
		
			<image style="overflow:visible;enable-background:new    ;" width="2449" height="3392" id="Capa_34__x2B__Capa_35_xA0_Imagen1" xlink:href="91BE291C.png"  transform="matrix(0.2101 0 0 0.2101 158.4292 270.45)">
		</image>
	</g>
</g>
<path class="st3" d="M202.3,429.9c0.3-1.3,0.3-2.7,0.7-4.2c0.6,4.5,1.5,8.7,3,12.7c1.9,4.8,4.2,9.1,7.2,12.9
	c3.9,5,8.4,8.9,13.2,12.4c5.8,4.1,11.8,7.3,18.1,10c4.2,1.8,8.6,3.3,12.9,4.8c4.2,1.4,8.3,3.1,12.5,4.6c6.4,2.3,12.8,4.3,19.3,6.1
	c4.9,1.4,9.8,2.6,14.7,3.7c3.7,0.8,7.3,1.6,11,2.2c3.1,0.5,6.2,1.1,9.4,1.6c2.7,0.4,5.4,0.7,8.2,1.1c2.7,0.4,5.4,0.8,8.2,1.2
	c2.3,0.3,4.5,0.6,6.8,0.9c3.8,0.6,7.5,0.8,11.3,1.4c3.4,0.6,6.8,1,10.2,1.4c3.5,0.3,7.1,0.6,10.6,0.8c7.9,0.6,15.8,0.4,23.7,0.4
	c6.4,0,12.8,0.1,19.1,0c4.2-0.1,8.3-0.3,12.5-0.6c3.8-0.3,7.7-0.7,11.5-1.3c4.2-0.6,8.4-1.2,12.6-1.7c4.3-0.5,8.5-1.1,12.7-1.8
	c3.4-0.5,6.9-0.8,10.3-1.3c3.3-0.5,6.5-1.1,9.8-1.6c3.4-0.5,6.8-1.2,10.2-1.9c7.6-1.6,15.1-3.5,22.6-5.7c8.3-2.4,16.4-5.4,24.6-8.4
	c5.4-2,10.8-3.6,16.1-6c8.2-3.6,16.2-8.1,23.4-14.4c5.1-4.5,9.7-9.8,12.9-16.7c2.3-5,4-10.3,4.6-16.1c0-0.1,0.1-0.2,0.2-0.4
	c0.4,1.3,0.5,2.6,0.6,3.9c0.2,2.5,0.3,5,0.4,7.5c0.3,6.3,0.4,12.5,0.3,18.8c-0.1,5.6-0.3,11.2-0.5,16.7c-0.1,2.4-0.2,4.8-0.3,7.2
	c-0.1,2.1-1,3.8-1.8,5.5c-1.7,3.7-4.2,6.6-6.9,9.1c-4.6,4.3-9.4,8.1-14.6,11c-5.7,3.2-11.4,6.3-17.2,9c-8,3.7-16.2,6.8-24.4,9.7
	c-6.2,2.1-12.5,3.9-18.7,5.8c-4.7,1.5-9.5,2.7-14.3,3.7c-4.3,0.9-8.6,1.6-12.8,2.4c-4.3,0.8-8.5,1.5-12.8,2.2
	c-2.7,0.4-5.3,0.8-8,1.1c-3.2,0.4-6.4,0.8-9.6,1.2c-2.2,0.3-4.3,0.4-6.5,0.7c-2.5,0.3-5,0.7-7.4,1c-1.5,0.2-3,0.4-4.5,0.5
	c-4.2,0.4-8.5,0.7-12.7,1c-1.8,0.1-3.5,0.2-5.3,0.2c-4.1,0-8.2,0.4-12.3,0.5c-2.8,0.1-5.7,0.1-8.5,0.2c-5,0-10,0.1-15-0.1
	c-4.9-0.1-9.7-0.6-14.6-0.6c-2.5,0-5-0.2-7.5-0.4c-3.6-0.3-7.2-0.6-10.7-1c-3.2-0.3-6.4-0.8-9.6-1.1c-4.6-0.5-9.3-1.1-13.9-1.6
	c-4.1-0.5-8.3-1-12.4-1.7c-5-0.8-10-1.7-15-2.6c-4.6-0.9-9.3-1.7-13.9-2.7c-4.6-1-9.2-2.5-13.8-3.9c-7.1-2.1-14.2-4.4-21.3-6.9
	c-9.8-3.6-19.4-7.6-28.8-12.7c-4.6-2.5-9.2-5-13.5-8.3c-4.4-3.4-8.8-6.9-12.3-11.8c-1.6-2.2-2.9-4.8-3.7-7.7
	c-0.3-1.1-0.3-2.3-0.3-3.4c0-0.5,0.1-1.1-0.2-1.6C202.3,461,202.3,445.5,202.3,429.9z M470.2,520.7c0,0.9,0.1,1.9,0.2,2.8
	c0.1,2.4,0.7,4.6,1.9,6.4c1.2,1.8,2.6,3,4.5,2.6c1.7-0.4,2.7-2.1,3.2-4.2c0.9-3.9,1.4-7.9,1-12.1c-0.3-3.6-1-7.1-3-9.8
	c-1.3-1.7-2.6-1.9-3.8-0.7c-1,0.9-1.8,2.3-2.3,3.8C470.6,513.1,470.4,516.9,470.2,520.7z M328.4,518.6c-0.1,2.1,0.1,4,0.3,6
	c0.3,1.9,0.4,3.8,1.3,5.4c1.8,3.3,3.9,3.2,6,1.3c2.2-2.2,3-5.3,3.1-8.8c0.1-3.2-0.2-6.4-0.7-9.5c-0.4-2.7-1.3-5.1-3-7
	c-0.9-1.1-2.3-1.3-3.2-0.3c-1.3,1.4-2.4,3-2.9,5.1C328.7,513.4,328.2,515.9,328.4,518.6z M367,522.3c0.1-3.2-0.4-6.3-1.5-9.2
	c-0.7-2-1.6-3.8-3.4-4.5c-1-0.4-1.8,0-2.4,1.1c-0.8,1.3-1.4,2.7-1.8,4.2c-0.7,2.4-1.1,5-1.1,7.6c0,1.9,0.2,3.7,0.5,5.6
	c0.4,2.6,0.7,5.2,1.9,7.4c0.9,1.8,2.5,2.3,4,1.3c1.4-1,2.4-2.4,2.9-4.4C366.8,528.4,366.9,525.3,367,522.3z M442.3,522.2
	c-0.1,1.2,0.1,2.4,0.2,3.6c0.1,1.2,0.1,2.4,0.4,3.6c0.4,1.9,0.8,3.8,2,5.2c2.2,2.4,4.7,2.4,5.9-1.4c1.5-4.8,2-9.9,1.6-15
	c-0.3-3.1-1.2-5.8-2.6-8.4c-0.6-1.2-1.5-1.5-2.6-1.2c-1.1,0.4-1.8,1.3-2.4,2.4C442.9,514.4,442.4,518.2,442.3,522.2z M394.2,524.1
	c0.1-5.1-0.8-8.7-2.3-12c-1-2.1-2.6-3.2-4.1-1.8c-1.3,1.1-2.3,2.6-2.7,4.6c-0.7,4.3-1,8.6-0.5,13c0.3,2.9,1,5.5,2.3,7.8
	c1.1,2.1,2.7,2.3,4.2,0.6c0.6-0.6,1-1.4,1.3-2.2C393.7,530.7,394.1,526.8,394.2,524.1z M425,523.9c0-2.5-0.3-5-0.5-7.5
	c-0.2-2.4-1.2-4.3-2.6-5.7c-1.1-1.1-1.8-1.2-3-0.4c-0.7,0.5-1.3,1.2-1.6,2.1c-1.2,3-2.1,6.2-2.2,9.7c-0.1,3.3,0.3,6.5,1.1,9.7
	c0.5,2,1.2,3.9,2.6,5.2c0.8,0.7,1.8,1,2.4,0.3c0.7-0.7,1.3-1.5,1.8-2.5C424.6,531.4,425,527.7,425,523.9z M506.7,513.3
	c0.1-3-0.4-6-1.5-8.9c-0.5-1.3-1.2-2.6-2.1-3.5c-1.1-1.1-3.3-0.8-4.5,1.6c-1.2,2.2-1.5,4.8-1.6,7.4c-0.2,2.9,0,5.8,0.5,8.6
	c0.4,2.4,1,4.8,2.4,6.6c2,2.5,4.8,1.3,5.6-1.6C506.4,520.3,506.7,516.9,506.7,513.3z M302.6,513.9c-0.1,0.9,0.2,2.2,0.2,3.5
	c0.1,2.4,0.6,4.7,1.3,6.8c0.6,1.7,2.3,2.6,3.7,2c1.9-0.7,2.7-2.7,3.3-4.8c1.1-3.7,1.4-7.6,1.2-11.6c-0.2-3-0.5-5.9-2.2-8.3
	c-1-1.3-3-1.8-4-0.5c-0.6,0.7-1.1,1.5-1.5,2.4C303.1,506.6,302.6,510,302.6,513.9z M554,499.2c0.1-1.4-0.1-2.8-0.2-4.2
	c-0.2-2.3-0.5-4.5-1.6-6.4c-1.3-2.2-3-2.5-4.7-0.9c-0.9,0.8-1.3,2.1-1.7,3.3c-0.6,2-0.8,4-1,6.1c-0.1,1.4-0.2,2.8-0.1,4.2
	c0,1.4,0.3,2.9,0.4,4.3c0.4,3.1,1.3,5.9,3.3,7.9c1,1,2.6,0.6,3.3-0.8c0.2-0.5,0.5-1,0.6-1.6C553.6,507.3,553.9,503.3,554,499.2z
	 M255.3,499.2c0.1,2.8,0.4,5.5,0.8,8.2c0.3,1.9,0.6,3.7,1.5,5.3c0.8,1.4,2.1,1.8,3.2,0.8c1.8-1.6,2.7-3.9,3.2-6.6
	c0.7-3.4,0.8-6.9,0.5-10.4c-0.2-2.6-0.5-5.2-1.6-7.4c-1.1-2.1-2.5-3.2-4.1-2.2c-1.5,0.9-2.4,2.6-2.8,4.6
	C255.4,494,255.4,496.6,255.3,499.2z M278.7,507.7c0.1,2.4,0.2,4.6,0.6,6.8c0.4,2.8,1.3,5.1,3.3,6.5c0.7,0.5,1.3,0.5,2-0.1
	c1.3-1.1,2-2.7,2.5-4.4c1-3.7,1.4-7.4,1.2-11.4c-0.2-3.3-0.8-6.3-2.4-8.9c-0.8-1.4-2.3-1.6-3.3-0.5c-0.7,0.8-1.4,1.6-1.8,2.7
	C279.5,501.3,278.8,504.5,278.7,507.7z M530.6,508.2c0.2-3.1-0.6-6-1.5-8.9c-0.5-1.6-1.3-3.1-2.6-3.9c-1-0.7-1.8-0.5-2.6,0.5
	c-1.9,2.5-2.6,5.7-2.7,9.1c-0.1,2.2-0.2,4.5,0.2,6.7c0.4,2.9,1,5.9,2.5,8.3c0.7,1.1,1.9,1.8,2.5,1.4c1.6-1,2.9-2.6,3.3-4.9
	C530.3,513.7,530.6,511,530.6,508.2z M577.5,489.4c-0.1-2.1-0.2-4-0.4-5.9c-0.2-2.2-0.8-4.3-2.1-5.9c-0.9-1-2-1.2-3-0.3
	c-1.7,1.5-2.7,3.7-3.1,6.2c-0.6,3.3-0.7,6.7-0.3,10.1c0.3,2.3,0.7,4.6,1.8,6.6c1.1,1.9,2.4,2.5,3.9,1.7c1-0.5,1.5-1.6,1.9-2.9
	C577.1,495.8,577.2,492.5,577.5,489.4z M232,489.4c-0.1,1.1,0,2.5,0.2,3.9c0.2,2.3,0.5,4.6,1.4,6.6c0.8,1.8,2.8,3.2,4.4,1.4
	c0.8-0.9,1.5-2,1.9-3.4c0.6-2.3,0.9-4.6,1-7.1c0.1-1.7-0.1-3.4-0.2-5.1c-0.2-3.3-1.2-6.1-3.2-8.3c-0.7-0.8-2.1-1-2.7-0.4
	c-1.2,1.3-2.1,2.8-2.4,4.9C232.1,484.2,232,486.6,232,489.4z M211.2,473.8c0,1.4,0.1,2.7,0.1,3.9c0.1,2.9,0.6,5.8,1.3,8.6
	c0.6,2.2,2,3.1,3.5,3.3c0.6,0.1,1-0.2,1.4-0.8c0.4-0.7,0.8-1.4,1.1-2.2c0.9-2.5,1.2-5.2,1.2-7.9c0.1-3.2-0.3-6.3-1-9.4
	c-0.5-2.4-1.2-4.6-3.1-5.9c-1.2-0.8-2.1-0.7-2.9,0.7c-0.3,0.5-0.5,1.1-0.7,1.7C211.6,468.4,211.1,471.1,211.2,473.8z M598.1,474.3
	c0-1.6,0.1-3.2-0.2-4.8c-0.3-1.7-0.4-3.5-1.1-5c-0.8-1.8-1.9-2.1-3.2-1.1c-1.6,1.2-2.2,3.1-2.8,5.1c-1.1,4.1-1.3,8.3-1.1,12.5
	c0.1,2.3,0.6,4.6,1.6,6.7c0.8,1.9,1.5,2.2,3.1,1.5c1.3-0.5,2-1.7,2.4-3.2C597.7,482.2,598.1,478.3,598.1,474.3z"/>
<path class="st4" d="M206,373.2c0.2,9.8,4.1,17.4,8.9,24.4c3.8,5.6,8.7,9.2,13.7,12.9c3.9,2.9,7.9,5.6,12,8c2.1,1.2,4.3,2,6.5,2.9
	c3.7,1.4,7.4,3.2,11.2,4.6c5.3,2,10.8,3.5,16.1,5.2c4.8,1.6,9.6,3.1,14.5,4.4c4.8,1.3,9.6,2.3,14.5,2.9c4.6,0.6,9.3,1.4,13.9,2
	c4.2,0.6,8.5,1.1,12.7,1.7c5.4,0.7,10.8,1.3,16.3,1.4c4.2,0.1,8.4,0.6,12.5,1c3.8,0.3,7.7,0.6,11.5,0.8c9.7,0.7,19.4,0.6,29.1,0.4
	c3.1-0.1,6.2-0.3,9.3-0.1c7.3,0.4,14.6,0.3,21.8,0.1c5.3-0.1,10.6-0.4,15.9-0.8c4-0.3,8.1-0.6,12.1-1.1c3.4-0.4,6.8-0.4,10.3-0.6
	c3.6-0.2,7.1-0.7,10.6-1.2c3.6-0.5,7.1-0.9,10.7-1.4c3.4-0.5,6.8-1,10.2-1.5c2.7-0.4,5.4-0.8,8.1-1.1c4.7-0.6,9.4-1.7,14-3
	c8.2-2.3,16.4-5,24.6-7.7c5-1.6,9.8-3.9,14.7-5.7c4.6-1.7,9-3.9,13.2-6.8c5.5-3.9,11.2-7.6,16.1-12.7c2.2-2.2,4.1-4.7,5.7-7.6
	c2-3.5,4.1-7,5.3-11.2c1-3.3,1.6-6.7,1.7-10.3c0.4,3,0.7,6,1.1,9c0.5,4,1,8,1.4,11.9c0.3,2.8,0.5,5.5,0.7,8.3
	c0.4,5.8,0.5,11.7,0.7,17.6c0.2,8.4,0.1,16.8,0.1,25.2c0,3.6-1.4,6.1-3.3,8.5c-7.4,9.2-16.4,14.9-25.8,19.8
	c-10.1,5.2-20.5,9.5-31.1,12.7c-8.8,2.7-17.7,5-26.7,6.9c-4.9,1-9.7,2.3-14.6,3.3c-3.6,0.7-7.2,1.2-10.8,1.8
	c-3.9,0.6-7.8,1.2-11.6,1.8c-3.1,0.4-6.2,0.8-9.3,1.2c-3.5,0.4-6.9,0.9-10.4,1.3c-2.6,0.3-5.2,0.6-7.8,0.8
	c-5.1,0.5-10.2,0.9-15.3,1.3c-1.7,0.1-3.4,0.1-5.1,0.3c-3.7,0.2-7.3,0.2-11,0.4c-9.5,0.5-19,0.7-28.5,0.5c-5.7-0.1-11.3-0.4-17-0.5
	c-4.7-0.1-9.4-0.4-14-0.8c-5-0.4-10-0.8-14.9-1.3c-4.6-0.5-9.2-1-13.8-1.6c-5-0.6-10-1.4-15-2.1c-4.4-0.6-8.8-1.2-13.2-1.9
	c-4.7-0.7-9.3-1.8-13.9-2.9c-4.7-1.1-9.4-2.1-14.1-3.2c-10.7-2.6-21.3-5.6-31.8-9.7c-8.6-3.4-17-7.3-25.1-12.2
	c-7.1-4.3-13.9-9.5-19.3-16.9c-1.3-1.8-2.1-3.9-2.2-6.5c-0.3-6.9-0.1-13.9-0.1-20.8c0-5.1,0.1-10.3,0.4-15.4
	c0.4-7,0.9-13.9,1.8-20.9C204.7,383.6,205.4,378.4,206,373.2z"/>
<path class="st5" d="M470.2,520.7c0.3-3.8,0.4-7.6,1.7-11.2c0.5-1.5,1.3-2.8,2.3-3.8c1.3-1.1,2.5-1,3.8,0.7c2,2.8,2.7,6.2,3,9.8
	c0.4,4.1-0.1,8.1-1,12.1c-0.5,2.1-1.5,3.8-3.2,4.2c-1.9,0.5-3.3-0.7-4.5-2.6c-1.2-1.9-1.8-4-1.9-6.4
	C470.3,522.6,470.2,521.7,470.2,520.7z"/>
<path class="st5" d="M328.4,518.6c-0.2-2.7,0.3-5.3,0.9-7.8c0.5-2.1,1.6-3.7,2.9-5.1c0.9-1,2.3-0.8,3.2,0.3c1.7,1.9,2.6,4.3,3,7
	c0.5,3.2,0.8,6.3,0.7,9.5c-0.1,3.4-0.8,6.6-3.1,8.8c-2,2-4.2,2-6-1.3c-0.9-1.6-1.1-3.6-1.3-5.4C328.4,522.7,328.2,520.7,328.4,518.6
	z"/>
<path class="st5" d="M367,522.3c-0.1,3.1-0.2,6.1-1,9c-0.5,1.9-1.5,3.4-2.9,4.4c-1.5,1-3.1,0.5-4-1.3c-1.2-2.2-1.5-4.8-1.9-7.4
	c-0.3-1.8-0.5-3.7-0.5-5.6c0-2.6,0.3-5.1,1.1-7.6c0.4-1.5,1-2.9,1.8-4.2c0.6-1.1,1.4-1.4,2.4-1.1c1.8,0.6,2.7,2.5,3.4,4.5
	C366.5,516,367.1,519.1,367,522.3z"/>
<path class="st5" d="M442.3,522.2c0.1-4,0.6-7.8,2.5-11.2c0.6-1.1,1.3-2,2.4-2.4c1.1-0.4,1.9,0,2.6,1.2c1.4,2.5,2.3,5.3,2.6,8.4
	c0.4,5.2-0.1,10.2-1.6,15c-1.1,3.8-3.7,3.8-5.9,1.4c-1.2-1.4-1.6-3.3-2-5.2c-0.2-1.2-0.3-2.4-0.4-3.6
	C442.4,524.6,442.2,523.4,442.3,522.2z"/>
<path class="st5" d="M394.2,524.1c-0.1,2.7-0.5,6.5-1.8,10.1c-0.3,0.9-0.8,1.6-1.3,2.2c-1.5,1.7-3,1.5-4.2-0.6c-1.3-2.4-2-5-2.3-7.8
	c-0.4-4.4-0.2-8.7,0.5-13c0.3-2,1.4-3.5,2.7-4.6c1.5-1.3,3.2-0.2,4.1,1.8C393.4,515.5,394.2,519.1,394.2,524.1z"/>
<path class="st5" d="M425,523.9c-0.1,3.8-0.4,7.5-2,10.8c-0.5,1-1.1,1.8-1.8,2.5c-0.6,0.6-1.7,0.4-2.4-0.3c-1.4-1.3-2.1-3.2-2.6-5.2
	c-0.8-3.1-1.1-6.4-1.1-9.7c0.1-3.4,0.9-6.6,2.2-9.7c0.3-0.9,1-1.6,1.6-2.1c1.2-0.9,1.9-0.8,3,0.4c1.4,1.5,2.3,3.3,2.6,5.7
	C424.8,518.9,425,521.4,425,523.9z"/>
<path class="st5" d="M506.7,513.3c0,3.6-0.3,6.9-1.2,10.2c-0.8,2.9-3.5,4.1-5.6,1.6c-1.5-1.8-2-4.2-2.4-6.6
	c-0.5-2.8-0.7-5.7-0.5-8.6c0.2-2.6,0.4-5.1,1.6-7.4c1.3-2.4,3.4-2.7,4.5-1.6c0.9,0.9,1.6,2.1,2.1,3.5
	C506.2,507.3,506.8,510.3,506.7,513.3z"/>
<path class="st5" d="M302.6,513.9c0-3.9,0.5-7.3,2-10.3c0.4-0.9,0.9-1.7,1.5-2.4c1-1.3,3-0.9,4,0.5c1.7,2.4,2.1,5.3,2.2,8.3
	c0.2,4-0.1,7.8-1.2,11.6c-0.6,2.1-1.4,4.1-3.3,4.8c-1.4,0.5-3.1-0.3-3.7-2c-0.8-2.2-1.3-4.5-1.3-6.8
	C302.8,516.1,302.5,514.8,302.6,513.9z"/>
<path class="st5" d="M554,499.2c-0.1,4-0.4,8-1.6,11.8c-0.2,0.5-0.4,1.1-0.6,1.6c-0.7,1.4-2.3,1.7-3.3,0.8c-2.1-2-3-4.7-3.3-7.9
	c-0.2-1.4-0.4-2.9-0.4-4.3c0-1.4,0-2.8,0.1-4.2c0.1-2.1,0.4-4.2,1-6.1c0.4-1.2,0.7-2.4,1.7-3.3c1.7-1.6,3.4-1.2,4.7,0.9
	c1.2,1.9,1.5,4.2,1.6,6.4C553.9,496.5,554.2,497.8,554,499.2z"/>
<path class="st5" d="M255.3,499.2c0.1-2.6,0.2-5.2,0.7-7.7c0.4-1.9,1.3-3.7,2.8-4.6c1.6-0.9,3,0.1,4.1,2.2c1.1,2.2,1.3,4.8,1.6,7.4
	c0.3,3.5,0.2,6.9-0.5,10.4c-0.5,2.7-1.4,5-3.2,6.6c-1.1,1-2.5,0.6-3.2-0.8c-0.9-1.6-1.2-3.4-1.5-5.3
	C255.6,504.7,255.4,502,255.3,499.2z"/>
<path class="st5" d="M278.7,507.7c0.2-3.2,0.8-6.4,1.9-9.4c0.4-1.1,1.1-1.9,1.8-2.7c1.1-1.1,2.5-0.9,3.3,0.5
	c1.6,2.6,2.2,5.7,2.4,8.9c0.3,3.9-0.1,7.7-1.2,11.4c-0.5,1.8-1.2,3.4-2.5,4.4c-0.7,0.6-1.2,0.6-2,0.1c-2-1.5-2.9-3.8-3.3-6.5
	C278.9,512.3,278.8,510.1,278.7,507.7z"/>
<path class="st5" d="M530.6,508.2c0,2.8-0.3,5.6-0.8,8.2c-0.5,2.3-1.7,3.9-3.3,4.9c-0.7,0.4-1.8-0.2-2.5-1.4
	c-1.5-2.4-2.1-5.4-2.5-8.3c-0.3-2.2-0.3-4.5-0.2-6.7c0.2-3.4,0.8-6.6,2.7-9.1c0.8-1,1.6-1.1,2.6-0.5c1.3,0.9,2.1,2.3,2.6,3.9
	C530,502.2,530.8,505.1,530.6,508.2z"/>
<path class="st5" d="M577.5,489.4c-0.2,3.1-0.4,6.4-1.3,9.5c-0.4,1.2-0.9,2.3-1.9,2.9c-1.5,0.8-2.8,0.2-3.9-1.7
	c-1.1-2-1.5-4.2-1.8-6.6c-0.4-3.4-0.3-6.7,0.3-10.1c0.5-2.5,1.4-4.7,3.1-6.2c1-0.9,2.1-0.7,3,0.3c1.3,1.6,1.9,3.7,2.1,5.9
	C577.3,485.4,577.3,487.3,577.5,489.4z"/>
<path class="st5" d="M232,489.4c0-2.8,0.1-5.1,0.5-7.5c0.3-2,1.2-3.6,2.4-4.9c0.5-0.6,2-0.3,2.7,0.4c2,2.2,3,5,3.2,8.3
	c0.1,1.7,0.3,3.4,0.2,5.1c-0.1,2.4-0.4,4.8-1,7.1c-0.4,1.4-1,2.5-1.9,3.4c-1.7,1.8-3.6,0.4-4.4-1.4c-0.9-2-1.2-4.3-1.4-6.6
	C232,491.9,231.9,490.4,232,489.4z"/>
<path class="st5" d="M211.2,473.8c-0.1-2.6,0.4-5.4,0.9-8.1c0.1-0.6,0.4-1.2,0.7-1.7c0.8-1.4,1.7-1.5,2.9-0.7
	c1.9,1.3,2.5,3.6,3.1,5.9c0.7,3,1.1,6.2,1,9.4c0,2.7-0.3,5.4-1.2,7.9c-0.3,0.8-0.7,1.5-1.1,2.2c-0.3,0.6-0.8,0.9-1.4,0.8
	c-1.5-0.2-2.9-1.1-3.5-3.3c-0.7-2.8-1.2-5.6-1.3-8.6C211.3,476.4,211.2,475.2,211.2,473.8z"/>
<path class="st5" d="M598.1,474.3c0.1,4-0.4,7.9-1.4,11.7c-0.4,1.5-1.1,2.7-2.4,3.2c-1.6,0.6-2.3,0.3-3.1-1.5
	c-0.9-2.1-1.4-4.3-1.6-6.7c-0.2-4.2,0-8.4,1.1-12.5c0.6-2,1.2-3.9,2.8-5.1c1.4-1,2.5-0.7,3.2,1.1c0.7,1.6,0.8,3.3,1.1,5
	C598.1,471.1,598.1,472.7,598.1,474.3z"/>
</svg>
