<?xml version="1.0" encoding="utf-8"?>
<!-- Generator: Adobe Illustrator 28.0.0, SVG Export Plug-In . SVG Version: 6.00 Build 0)  -->
<svg version="1.1" xmlns="http://www.w3.org/2000/svg" xmlns:xlink="http://www.w3.org/1999/xlink" x="0px" y="0px"
	 viewBox="0 0 800 800" style="enable-background:new 0 0 800 800;" xml:space="preserve">
<style type="text/css">
	.st0{fill:#103523;}
	.st1{fill:#859356;}
	.st2{fill:#EAE7C6;}
	.st3{fill:#E9E6C6;}
	.st4{fill:#24231E;}
	.st5{fill:#08323A;}
	.st6{fill:#135764;}
</style>
<g id="Fondo_Maquina">
	<path class="st0" d="M219.41,440.99c0-100.49,0.01-200.98-0.01-301.47c0-14.34,2.65-28.07,10.05-40.46
		c12.57-21.06,30.86-34.16,55.22-38.41c4.61-0.8,9.25-1.08,13.93-1.08c76.24,0.02,152.48-0.03,228.73,0.04
		c26.63,0.02,48.09,10.84,64.01,32.14c10.07,13.46,14.79,28.91,14.8,45.72c0.02,79.13,0,158.26-0.01,237.39
		c0,71.35,0,142.69,0,214.04c0,54.31-0.01,108.62,0.05,162.93c0,2.23-0.48,2.95-2.82,2.9c-7.78-0.16-15.56-0.07-23.34-0.07
		c-117.91,0-235.81,0-353.72,0.01c-0.52,0-1.04,0-1.56,0c-5.33,0.02-5.33,0.02-5.33-5.19c0-50.59,0-101.18,0-151.77
		C219.41,545.46,219.41,493.22,219.41,440.99z"/>
	<path class="st1" d="M225.38,425.68c-1.1,0-2.25,0.3-3.31-0.27c-0.02-0.86-0.04-1.73-0.04-2.59c0-94.33,0.02-188.65-0.03-282.98
		c-0.01-14.56,3.07-28.24,10.63-40.79c7.49-12.42,17.67-21.96,30.64-28.49c10.83-5.45,22.27-7.95,34.44-7.93
		c76.91,0.1,153.83-0.1,230.74,0.14c27.72,0.08,48.84,12.72,63.6,36.09c6.94,10.99,10.15,23.12,10.78,36.02
		c0.29,0.93,0.14,1.89,0.14,2.84c0.01,78.61,0.01,157.21,0.01,235.82c0,3.74-0.16,3.93-3.9,3.97c-5.53,0.05-11.06-0.04-16.6,0.04
		c-6.15,0.09-11.04,2.49-14.25,7.91c-1.36,2.29-1.99,4.77-2,7.42c-0.01,8.04,0.02,16.08-0.02,24.13c-0.01,2.46,0.89,4.5,2.18,6.51
		c1.14,1.77,0.87,2.13-1.25,2.19c-0.6,0.02-1.21,0-1.82,0"/>
	<path class="st0" d="M222.76,734.16c0-1.89,0.01-3.79,0.01-5.68c0.84-0.76,1.9-0.79,2.93-0.76c8.55,0.22,17.09-0.16,25.63-0.58
		c9.92-0.49,19.81-1.4,29.62-2.99c3.65-0.59,3.8-0.86,3.8-4.53c0.01-13.31-0.04-26.62,0.05-39.93c0.02-2.52-0.77-4.17-2.94-5.53
		c-10.54-6.57-21.9-10.17-34.38-9.75c-7.05,0.24-13.83,1.93-20.45,4.32c-1.33,0.48-2.66,1.38-4.2,0.65
		c-0.01-1.94-0.02-3.88-0.03-5.81c1.13-1.32,2.77-1.73,4.31-2.25c18.65-6.38,36.67-5.06,54.02,4.45c0.3,0.17,0.6,0.34,0.91,0.5
		c2.33,1.22,2.73,1.05,2.74-1.47c0.03-22.37,0.01-44.75,0.03-67.12c0-2.04-0.83-3.37-2.53-4.45c-16.33-10.28-33.62-12.78-52.06-6.67
		c-2.4,0.8-4.69,2.27-7.42,1.79c0.02-1.94,0.05-3.87,0.07-5.81c1.63-1.91,4.03-2.26,6.21-2.96c18.09-5.84,35.46-3.97,52.14,5.01
		c0.46,0.25,0.92,0.48,1.37,0.74c1.62,0.92,2.19,0.22,2.2-1.4c0.01-0.78,0.01-1.56,0.01-2.33c0-12.19-0.03-24.39,0.03-36.58
		c0.01-2.46-0.65-4.54-2.15-6.47c-3.39-4.37-6.85-8.69-10.03-13.23c-1.6-2.29-3.6-3.18-6.37-3.16c-13.22,0.08-26.45,0.04-39.67,0.02
		c-1.27,0-2.62,0.25-3.75-0.65c-0.01-1.78-0.02-3.56-0.04-5.35c1.27-1.03,2.8-0.75,4.24-0.75c14.25-0.02,28.49-0.01,42.74-0.01
		c1.12,0,2.25,0.06,3.36-0.14c1.22-0.23,2.58-0.58,2.63-2.03c0.06-1.58-1.24-2.11-2.63-2.31c-1.03-0.14-2.07-0.1-3.1-0.1
		c-14.33,0-28.67,0.01-43-0.01c-1.44,0-2.96,0.28-4.23-0.75c-0.01-26.89,0-53.79-0.08-80.68c-0.01-2.01,0.67-2.44,2.54-2.43
		c61.63,0.04,123.26,0.05,184.89-0.02c2.56,0,2.45,1.27,2.45,3.04c-0.02,34.85-0.02,69.7-0.02,104.55c0,70.39,0,140.78,0,211.18
		c0,3.53,0,3.53-3.45,3.53c-60.68,0-121.36,0.01-182.04-0.01c-4.98,0-4.27,0.74-4.33-4.44c-0.01-0.43,0.02-0.86,0.02-1.3
		c1.1-0.93,2.44-0.74,3.72-0.75c6.99-0.02,13.98-0.13,20.97,0.03c6.14,0.14,12.23-0.59,18.36-0.61c3.27-0.01,5.9-0.96,6.82-4.61
		c0.44-1.72,1.84-3.08,2.42-5.13c-3.53-0.29-6.83,0.44-10.13,0.67c-7.48,0.53-14.94,1.42-22.46,1.34
		c-5.44-0.06-10.84,0.86-16.29,0.53C225,734.9,223.76,735.07,222.76,734.16z"/>
	<path class="st0" d="M603.43,598.18c-0.02,3.69-0.04,7.37-0.06,11.06c-1.29,1-2.81,0.71-4.25,0.71
		c-16.07,0.02-32.15,0.01-48.22,0.02c-0.95,0-1.9,0-2.85,0.06c-1.14,0.08-1.72,0.64-1.78,1.79c-0.04,0.69-0.05,1.38-0.05,2.07
		c0,17.29-0.01,34.58,0,51.88c0,4.15,0.11,4.26,4.16,4.27c15.99,0.01,31.98,0.01,47.96,0c4.17,0,4.28-0.11,4.28-4.43
		c0.01-17.38-0.01-34.76,0.02-52.14c0-1.44-0.29-2.96,0.72-4.25c1.06,0.66,0.61,1.72,0.61,2.59c0.03,18.67,0.02,37.34,0.02,56.01
		c0,22.69-0.01,45.38-0.04,68.08c0,0.99,0.39,2.09-0.49,2.95c-1.06-1.26-0.8-2.78-0.8-4.23c-0.02-15.73-0.01-31.46-0.01-47.18
		c0-0.86-0.04-1.73-0.01-2.59c0.06-1.95-0.81-2.81-2.79-2.8c-4.32,0.03-8.64,0.01-12.96,0.01c-12.27,0-24.53-0.01-36.8,0
		c-3.73,0-3.91,0.19-3.92,3.98c-0.02,9.07-0.05,18.15,0.01,27.22c0.08,13.63,11.22,24.74,24.81,24.78c9.5,0.03,19,0,28.5,0.02
		c1.36,0,2.79-0.2,3.96,0.8c0,2.85-0.03,5.71,0.03,8.56c0.03,1.32-0.44,1.95-1.8,1.83c-0.51-0.05-1.04,0-1.56,0
		c-61.02,0-122.04,0-183.07,0c-3.41,0-3.42,0-3.42-3.3c0-105.24,0.01-210.47-0.06-315.71c0-2.64,0.66-3.3,3.29-3.29
		c54.71,0.08,109.43,0.06,164.14,0.06c0.95,0,1.9,0.06,2.85,0.09c0.82,2.7,0.08,4.85-2.48,6.65c-3.53,2.48-7.19,4.78-10.34,7.78
		c-8.31,7.91-13.97,17.48-17.94,28.15c-3.32,8.9-4.96,18.09-5.52,27.57c-0.99,16.6,2.3,32.28,9.6,47.15
		c1.49,3.03,1.41,5.63-0.19,8.56c-6.95,12.73-10.65,26.37-10.87,40.9c-0.06,3.59,0.05,3.65,3.58,3.66c16.58,0.01,33.16,0,49.74,0.02
		C600.79,597.51,602.23,597.23,603.43,598.18z"/>
	<path class="st1" d="M603.43,598.18c-18.67,0.03-37.34,0.03-56.01,0.11c-1.84,0.01-2.1-0.78-2.1-2.34
		c-0.02-15.52,3.68-30.1,11.19-43.67c1.4-2.53,1.53-4.72,0.19-7.3c-6.04-11.66-9.12-24.11-9.88-37.21
		c-0.95-16.47,1.99-32.16,9.24-46.95c5.38-10.97,12.88-20.27,23.5-26.65c2.85-1.71,4.22-3.9,4.29-7.09
		c5.88-0.01,11.75,0.02,17.63-0.07c1.61-0.03,2.21,0.52,2.03,2.08c-0.07,0.6-0.01,1.21-0.01,1.81c0,54.55,0,109.1,0,163.64
		C603.52,595.76,603.46,596.97,603.43,598.18z"/>
	<path class="st2" d="M222.76,588.36c9.49-3.65,19.12-6.48,29.47-5.9c11.7,0.66,22.19,4.71,31.91,11.06
		c1.08,0.7,1.39,1.62,1.39,2.84c-0.02,23.25,0,46.5-0.02,69.74c0,2.74-0.38,2.93-2.79,1.49c-11.84-7.07-24.6-10.3-38.39-9.25
		c-6.33,0.48-12.39,2.16-18.36,4.23c-1.05,0.37-2.13,0.67-3.19,1C222.78,638.51,222.77,613.43,222.76,588.36z"/>
	<path class="st1" d="M222.81,669.39c6.75-2.37,13.48-4.71,20.69-5.47c12.37-1.3,23.68,1.66,34.71,7.11
		c5.8,2.87,7.84,6.48,7.49,13.03c-0.65,12.33-0.26,24.71-0.16,37.07c0.02,2.27-0.71,3.21-2.93,3.59
		c-7.15,1.24-14.35,2.03-21.56,2.55c-12.74,0.93-25.5,1.54-38.29,1.2C222.78,708.78,222.8,689.09,222.81,669.39z"/>
	<path class="st1" d="M222.83,521.54c15.04-0.01,30.07,0,45.11-0.06c1.91-0.01,3.27,0.66,4.4,2.18c3.72,4.98,7.47,9.94,11.28,14.85
		c1.33,1.72,1.93,3.5,1.91,5.72c-0.08,13.31-0.02,26.63-0.04,39.94c0,0.98,0.51,2.26-0.61,2.86c-0.96,0.51-1.73-0.47-2.53-0.92
		c-11.08-6.22-22.89-9.63-35.67-9.06c-8.27,0.37-16.14,2.64-23.86,5.51c-0.04-12.24-0.09-24.48-0.1-36.71
		C222.73,537.74,222.8,529.64,222.83,521.54z"/>
	<path class="st2" d="M222.76,734.16c12.43-0.2,24.86-0.46,37.25-1.43c4.99-0.39,9.96-0.93,14.94-1.42c0.59-0.06,1.29-0.41,1.7,0.14
		c0.54,0.73-0.16,1.29-0.58,1.78c-1.67,1.93-2.82,4.16-3.48,6.59c-0.51,1.88-1.61,2.64-3.49,2.82c-7.23,0.68-14.47,0.78-21.72,0.85
		c-8.2,0.08-16.4,0-24.61-0.01C222.78,740.38,222.77,737.27,222.76,734.16z"/>
	<path class="st3" d="M222.79,510.08c16.65-0.01,33.3-0.03,49.94-0.03c2.84,0,4.21,1.04,4.21,3.07c0,2.03-1.37,3.1-4.21,3.1
		c-16.65,0.01-33.3-0.01-49.94-0.02C222.79,514.15,222.79,512.11,222.79,510.08z"/>
	<path class="st2" d="M603.36,609.22c0.04,4.84,0.1,9.67,0.1,14.51c0.01,14.86-0.02,29.72,0.04,44.59c0.01,1.76-0.42,2.38-2.28,2.37
		c-17.88-0.06-35.76-0.06-53.63,0c-1.9,0.01-2.28-0.69-2.27-2.41c0.05-18.92,0.05-37.85,0-56.77c-0.01-1.82,0.54-2.34,2.35-2.33
		c18.57,0.07,37.14,0.05,55.71,0.05C603.37,609.24,603.36,609.22,603.36,609.22z"/>
	<path class="st1" d="M603.47,738.86c-11.14,0.01-22.29,0.24-33.43-0.01c-13.5-0.3-24.59-11.9-24.67-25.44
		c-0.06-9.77,0.04-19.53-0.06-29.3c-0.02-2.19,0.71-2.8,2.83-2.79c17.54,0.07,35.07,0.07,52.61-0.01c2.21-0.01,2.75,0.74,2.74,2.84
		C603.42,702.39,603.46,720.62,603.47,738.86L603.47,738.86z"/>
	<path class="st2" d="M603.49,401.84c0,4.06-0.06,8.13,0.03,12.19c0.04,1.63-0.37,2.27-2.14,2.25c-7.43-0.09-14.87-0.09-22.3,0
		c-1.85,0.02-2.36-0.61-2.33-2.39c0.09-6.74,0-13.49,0.05-20.23c0.03-4.1,2-6.05,6.06-6.07c6.14-0.04,12.27,0.06,18.41-0.06
		c1.91-0.04,2.3,0.66,2.25,2.39C603.41,393.88,603.49,397.86,603.49,401.84z"/>
</g>
<g id="Pantalla">
	<path class="st2" d="M412.5,252.22c-33.71,0-67.42,0-101.13,0c-3.47,0-3.47,0-3.47-3.58c0-41.25,0-82.49,0-123.74
		c0-3.56,0-3.57,3.49-3.57c67.42,0,134.84,0,202.26,0c3.45,0,3.45,0,3.45,3.32c0,41.42,0,82.84,0,124.26c0,3.31-0.01,3.31-3.48,3.31
		C479.92,252.22,446.21,252.22,412.5,252.22z"/>
	<path class="st4" d="M412.49,244.36c-30.68,0-61.36-0.03-92.04,0.05c-2.45,0.01-3.2-0.58-3.2-3.12c0.08-36.06,0.08-72.11,0-108.17
		c-0.01-2.47,0.77-2.98,3.07-2.97c61.62,0.06,123.24,0.06,184.87,0c2.32,0,3.07,0.53,3.06,2.98c-0.08,36.14-0.08,72.29,0,108.43
		c0.01,2.36-0.72,2.85-2.94,2.85C474.37,244.34,443.43,244.36,412.49,244.36z"/>
</g>
<g id="Scaner_Tarjeta">
	<path class="st2" d="M536.69,303.21c0,9.08,0.07,18.16-0.02,27.23c-0.15,15.37-13.53,28.06-28.85,27.47
		c-14.58-0.56-26.69-12.45-26.97-27.32c-0.35-18.84-0.07-37.69-0.1-56.54c0-1.67,0.59-2.28,2.27-2.28
		c17.2,0.04,34.39,0.04,51.59-0.01c1.85-0.01,2.09,0.86,2.08,2.39C536.66,283.85,536.68,293.53,536.69,303.21
		C536.68,303.21,536.69,303.21,536.69,303.21z"/>
	<path class="st5" d="M529.06,330.19c-0.03,10.96-9.04,19.93-19.97,19.9c-11.03-0.03-20.03-9.14-19.96-20.21
		c0.07-11.03,8.97-19.82,20.02-19.79C520.4,310.12,529.1,318.9,529.06,330.19z"/>
	<path class="st6" d="M525.32,330.23c0.79,8.28-7.6,15.95-15.79,15.95c-7.67,0-16.28-6.86-15.98-16.41
		c0.25-8.15,6.6-15.64,16.19-15.72C518.59,313.97,525.99,321.97,525.32,330.23z"/>
</g>
<g id="Zona_Residuos">
	<path class="st2" d="M413.54,271.88c18.32,0,36.65,0.04,54.97-0.05c2.52-0.01,3.45,0.51,3.43,3.26
		c-0.13,19.54,0.41,39.1-0.23,58.62c-0.91,27.74-22.21,50.76-49.69,54.96c-31.71,4.85-60.98-16.86-66.39-47.51
		c-1.12-6.36-1-12.69-0.68-19.09c0.31-6.12,0.11-12.28,0.11-18.41c0.01-9.69,0.06-19.37-0.05-29.05c-0.02-2.16,0.6-2.78,2.76-2.77
		C376.37,271.92,394.96,271.88,413.54,271.88z"/>
	<path class="st6" d="M365.46,329.96c-0.15-26.04,20.66-47.53,47.29-47.44c27.24,0.09,47.5,21.1,47.52,47.53
		c0.02,26.79-21.18,47.54-47.62,47.46C385.86,377.44,365.26,355.8,365.46,329.96z"/>
	<path class="st4" d="M412.55,371.5c-21.95,0.72-41.63-18.68-41.4-41.87c0.22-22.22,18.85-41.47,42.2-41.3
		c22.14,0.16,41.53,19.46,41.14,42.58C454.12,352.24,435.17,372.51,412.55,371.5z"/>
</g>
</svg>
